%TF.GenerationSoftware,KiCad,Pcbnew,4.0.7*%
%TF.CreationDate,2017-11-27T18:36:53+08:00*%
%TF.ProjectId,LED_R,4C45445F522E6B696361645F70636200,rev?*%
%TF.FileFunction,Copper,L2,Bot,Signal*%
%FSLAX46Y46*%
G04 Gerber Fmt 4.6, Leading zero omitted, Abs format (unit mm)*
G04 Created by KiCad (PCBNEW 4.0.7) date 11/27/17 18:36:53*
%MOMM*%
%LPD*%
G01*
G04 APERTURE LIST*
%ADD10C,0.100000*%
%ADD11R,1.700000X1.700000*%
%ADD12O,1.700000X1.700000*%
%ADD13R,0.500000X0.900000*%
%ADD14C,0.453000*%
%ADD15C,0.250000*%
%ADD16C,0.254000*%
G04 APERTURE END LIST*
D10*
D11*
X9997600Y-2709200D03*
D12*
X9997600Y-5249200D03*
X9997600Y-7789200D03*
X9997600Y-10329200D03*
X9997600Y-12869200D03*
X9997600Y-15409200D03*
X9997600Y-17949200D03*
X9997600Y-20489200D03*
D11*
X1997600Y-2709200D03*
D12*
X1997600Y-5249200D03*
X1997600Y-7789200D03*
X1997600Y-10329200D03*
X1997600Y-12869200D03*
X1997600Y-15409200D03*
X1997600Y-17949200D03*
X1997600Y-20489200D03*
D13*
X5247600Y-2709200D03*
X6747600Y-2709200D03*
X5247600Y-5249200D03*
X6747600Y-5249200D03*
X5247600Y-7789200D03*
X6747600Y-7789200D03*
X5247600Y-10329200D03*
X6747600Y-10329200D03*
X5247600Y-12869200D03*
X6747600Y-12869200D03*
X5247600Y-15409200D03*
X6747600Y-15409200D03*
X5247600Y-17949200D03*
X6747600Y-17949200D03*
X5247600Y-20489200D03*
X6747600Y-20489200D03*
D14*
X5950000Y-1600006D03*
X5900000Y-4100000D03*
X5950000Y-6650000D03*
X5950000Y-9200002D03*
X5950000Y-11750006D03*
X6000004Y-14350000D03*
X5950000Y-16850000D03*
X5950000Y-19350002D03*
D15*
X5247600Y-2709200D02*
X5640800Y-2709200D01*
X5640800Y-2709200D02*
X5950000Y-2400000D01*
X5950000Y-2400000D02*
X5950000Y-1600006D01*
X5247600Y-5249200D02*
X5500800Y-5249200D01*
X5500800Y-5249200D02*
X5900000Y-4850000D01*
X5900000Y-4850000D02*
X5900000Y-4100000D01*
X5247600Y-7789200D02*
X5560800Y-7789200D01*
X5560800Y-7789200D02*
X5950000Y-7400000D01*
X5950000Y-7400000D02*
X5950000Y-6650000D01*
X5247600Y-10329200D02*
X5620800Y-10329200D01*
X5620800Y-10329200D02*
X5950000Y-10000000D01*
X5950000Y-10000000D02*
X5950000Y-9200002D01*
X5247600Y-12869200D02*
X5630800Y-12869200D01*
X5630800Y-12869200D02*
X5950000Y-12550000D01*
X5950000Y-12550000D02*
X5950000Y-11750006D01*
X5247600Y-15409200D02*
X5690800Y-15409200D01*
X5690800Y-15409200D02*
X6000004Y-15099996D01*
X6000004Y-15099996D02*
X6000004Y-14350000D01*
X5247600Y-17949200D02*
X5650800Y-17949200D01*
X5650800Y-17949200D02*
X5950000Y-17650000D01*
X5950000Y-17650000D02*
X5950000Y-16850000D01*
X5247600Y-20489200D02*
X5610800Y-20489200D01*
X5610800Y-20489200D02*
X5950000Y-20150000D01*
X5950000Y-20150000D02*
X5950000Y-19350002D01*
X9997600Y-2709200D02*
X6747600Y-2709200D01*
X9997600Y-5249200D02*
X6747600Y-5249200D01*
X9997600Y-7789200D02*
X6747600Y-7789200D01*
X6747600Y-10329200D02*
X7247600Y-10329200D01*
X7247600Y-10329200D02*
X9997600Y-10329200D01*
X9997600Y-12869200D02*
X8795519Y-12869200D01*
X8795519Y-12869200D02*
X6747600Y-12869200D01*
X9997600Y-15409200D02*
X8795519Y-15409200D01*
X8795519Y-15409200D02*
X6747600Y-15409200D01*
X9997600Y-17949200D02*
X8795519Y-17949200D01*
X8795519Y-17949200D02*
X6747600Y-17949200D01*
X9795519Y-20489200D02*
X6747600Y-20489200D01*
D16*
G36*
X11498000Y-22698000D02*
X502000Y-22698000D01*
X502000Y-5249200D01*
X695582Y-5249200D01*
X792788Y-5737887D01*
X1069607Y-6152175D01*
X1483895Y-6428994D01*
X1937391Y-6519200D01*
X1483895Y-6609406D01*
X1069607Y-6886225D01*
X792788Y-7300513D01*
X695582Y-7789200D01*
X792788Y-8277887D01*
X1069607Y-8692175D01*
X1483895Y-8968994D01*
X1937391Y-9059200D01*
X1483895Y-9149406D01*
X1069607Y-9426225D01*
X792788Y-9840513D01*
X695582Y-10329200D01*
X792788Y-10817887D01*
X1069607Y-11232175D01*
X1483895Y-11508994D01*
X1937391Y-11599200D01*
X1483895Y-11689406D01*
X1069607Y-11966225D01*
X792788Y-12380513D01*
X695582Y-12869200D01*
X792788Y-13357887D01*
X1069607Y-13772175D01*
X1483895Y-14048994D01*
X1937391Y-14139200D01*
X1483895Y-14229406D01*
X1069607Y-14506225D01*
X792788Y-14920513D01*
X695582Y-15409200D01*
X792788Y-15897887D01*
X1069607Y-16312175D01*
X1483895Y-16588994D01*
X1937391Y-16679200D01*
X1483895Y-16769406D01*
X1069607Y-17046225D01*
X792788Y-17460513D01*
X695582Y-17949200D01*
X792788Y-18437887D01*
X1069607Y-18852175D01*
X1483895Y-19128994D01*
X1937391Y-19219200D01*
X1483895Y-19309406D01*
X1069607Y-19586225D01*
X792788Y-20000513D01*
X695582Y-20489200D01*
X792788Y-20977887D01*
X1069607Y-21392175D01*
X1483895Y-21668994D01*
X1972582Y-21766200D01*
X2022618Y-21766200D01*
X2511305Y-21668994D01*
X2925593Y-21392175D01*
X3202412Y-20977887D01*
X3299618Y-20489200D01*
X3202412Y-20000513D01*
X2925593Y-19586225D01*
X2511305Y-19309406D01*
X2057809Y-19219200D01*
X2511305Y-19128994D01*
X2925593Y-18852175D01*
X3202412Y-18437887D01*
X3299618Y-17949200D01*
X3202412Y-17460513D01*
X2925593Y-17046225D01*
X2511305Y-16769406D01*
X2057809Y-16679200D01*
X2511305Y-16588994D01*
X2925593Y-16312175D01*
X3202412Y-15897887D01*
X3299618Y-15409200D01*
X3202412Y-14920513D01*
X2925593Y-14506225D01*
X2511305Y-14229406D01*
X2057809Y-14139200D01*
X2511305Y-14048994D01*
X2925593Y-13772175D01*
X3202412Y-13357887D01*
X3299618Y-12869200D01*
X3202412Y-12380513D01*
X2925593Y-11966225D01*
X2511305Y-11689406D01*
X2057809Y-11599200D01*
X2511305Y-11508994D01*
X2925593Y-11232175D01*
X3202412Y-10817887D01*
X3299618Y-10329200D01*
X3202412Y-9840513D01*
X2925593Y-9426225D01*
X2511305Y-9149406D01*
X2057809Y-9059200D01*
X2511305Y-8968994D01*
X2925593Y-8692175D01*
X3202412Y-8277887D01*
X3299618Y-7789200D01*
X3202412Y-7300513D01*
X2925593Y-6886225D01*
X2511305Y-6609406D01*
X2057809Y-6519200D01*
X2511305Y-6428994D01*
X2925593Y-6152175D01*
X3202412Y-5737887D01*
X3299618Y-5249200D01*
X3202412Y-4760513D01*
X2925593Y-4346225D01*
X2511305Y-4069406D01*
X2135054Y-3994565D01*
X2847600Y-3994565D01*
X3005837Y-3964791D01*
X3151167Y-3871273D01*
X3248664Y-3728581D01*
X3282965Y-3559200D01*
X3282965Y-2259200D01*
X4562235Y-2259200D01*
X4562235Y-3159200D01*
X4592009Y-3317437D01*
X4685527Y-3462767D01*
X4828219Y-3560264D01*
X4997600Y-3594565D01*
X5481321Y-3594565D01*
X5346313Y-3729339D01*
X5246614Y-3969440D01*
X5246387Y-4229419D01*
X5301926Y-4363835D01*
X4997600Y-4363835D01*
X4839363Y-4393609D01*
X4694033Y-4487127D01*
X4596536Y-4629819D01*
X4562235Y-4799200D01*
X4562235Y-5699200D01*
X4592009Y-5857437D01*
X4685527Y-6002767D01*
X4828219Y-6100264D01*
X4997600Y-6134565D01*
X5497600Y-6134565D01*
X5551497Y-6124424D01*
X5396313Y-6279339D01*
X5296614Y-6519440D01*
X5296387Y-6779419D01*
X5347794Y-6903835D01*
X4997600Y-6903835D01*
X4839363Y-6933609D01*
X4694033Y-7027127D01*
X4596536Y-7169819D01*
X4562235Y-7339200D01*
X4562235Y-8239200D01*
X4592009Y-8397437D01*
X4685527Y-8542767D01*
X4828219Y-8640264D01*
X4997600Y-8674565D01*
X5497600Y-8674565D01*
X5563844Y-8662100D01*
X5396313Y-8829341D01*
X5296614Y-9069442D01*
X5296387Y-9329421D01*
X5343661Y-9443835D01*
X4997600Y-9443835D01*
X4839363Y-9473609D01*
X4694033Y-9567127D01*
X4596536Y-9709819D01*
X4562235Y-9879200D01*
X4562235Y-10779200D01*
X4592009Y-10937437D01*
X4685527Y-11082767D01*
X4828219Y-11180264D01*
X4997600Y-11214565D01*
X5497600Y-11214565D01*
X5576193Y-11199777D01*
X5396313Y-11379345D01*
X5296614Y-11619446D01*
X5296387Y-11879425D01*
X5339528Y-11983835D01*
X4997600Y-11983835D01*
X4839363Y-12013609D01*
X4694033Y-12107127D01*
X4596536Y-12249819D01*
X4562235Y-12419200D01*
X4562235Y-13319200D01*
X4592009Y-13477437D01*
X4685527Y-13622767D01*
X4828219Y-13720264D01*
X4997600Y-13754565D01*
X5497600Y-13754565D01*
X5655837Y-13724791D01*
X5801167Y-13631273D01*
X5898664Y-13488581D01*
X5932965Y-13319200D01*
X5932965Y-13318429D01*
X6021123Y-13259523D01*
X6062235Y-13218411D01*
X6062235Y-13319200D01*
X6092009Y-13477437D01*
X6185527Y-13622767D01*
X6328219Y-13720264D01*
X6497600Y-13754565D01*
X6997600Y-13754565D01*
X7155837Y-13724791D01*
X7301167Y-13631273D01*
X7398664Y-13488581D01*
X7412309Y-13421200D01*
X8835092Y-13421200D01*
X9069607Y-13772175D01*
X9483895Y-14048994D01*
X9937391Y-14139200D01*
X9483895Y-14229406D01*
X9069607Y-14506225D01*
X8835092Y-14857200D01*
X7413773Y-14857200D01*
X7403191Y-14800963D01*
X7309673Y-14655633D01*
X7166981Y-14558136D01*
X6997600Y-14523835D01*
X6635421Y-14523835D01*
X6653390Y-14480560D01*
X6653617Y-14220581D01*
X6554338Y-13980305D01*
X6370665Y-13796313D01*
X6130564Y-13696614D01*
X5870585Y-13696387D01*
X5630309Y-13795666D01*
X5446317Y-13979339D01*
X5346618Y-14219440D01*
X5346391Y-14479419D01*
X5364743Y-14523835D01*
X4997600Y-14523835D01*
X4839363Y-14553609D01*
X4694033Y-14647127D01*
X4596536Y-14789819D01*
X4562235Y-14959200D01*
X4562235Y-15859200D01*
X4592009Y-16017437D01*
X4685527Y-16162767D01*
X4828219Y-16260264D01*
X4997600Y-16294565D01*
X5497600Y-16294565D01*
X5654353Y-16265070D01*
X5580305Y-16295666D01*
X5396313Y-16479339D01*
X5296614Y-16719440D01*
X5296387Y-16979419D01*
X5331267Y-17063835D01*
X4997600Y-17063835D01*
X4839363Y-17093609D01*
X4694033Y-17187127D01*
X4596536Y-17329819D01*
X4562235Y-17499200D01*
X4562235Y-18399200D01*
X4592009Y-18557437D01*
X4685527Y-18702767D01*
X4828219Y-18800264D01*
X4997600Y-18834565D01*
X5497600Y-18834565D01*
X5551500Y-18824423D01*
X5396313Y-18979341D01*
X5296614Y-19219442D01*
X5296387Y-19479421D01*
X5347793Y-19603835D01*
X4997600Y-19603835D01*
X4839363Y-19633609D01*
X4694033Y-19727127D01*
X4596536Y-19869819D01*
X4562235Y-20039200D01*
X4562235Y-20939200D01*
X4592009Y-21097437D01*
X4685527Y-21242767D01*
X4828219Y-21340264D01*
X4997600Y-21374565D01*
X5497600Y-21374565D01*
X5655837Y-21344791D01*
X5801167Y-21251273D01*
X5898664Y-21108581D01*
X5932965Y-20939200D01*
X5932965Y-20925065D01*
X6001123Y-20879523D01*
X6062235Y-20818411D01*
X6062235Y-20939200D01*
X6092009Y-21097437D01*
X6185527Y-21242767D01*
X6328219Y-21340264D01*
X6497600Y-21374565D01*
X6997600Y-21374565D01*
X7155837Y-21344791D01*
X7301167Y-21251273D01*
X7398664Y-21108581D01*
X7412309Y-21041200D01*
X8835092Y-21041200D01*
X9069607Y-21392175D01*
X9483895Y-21668994D01*
X9972582Y-21766200D01*
X10022618Y-21766200D01*
X10511305Y-21668994D01*
X10925593Y-21392175D01*
X11202412Y-20977887D01*
X11299618Y-20489200D01*
X11202412Y-20000513D01*
X10925593Y-19586225D01*
X10511305Y-19309406D01*
X10057809Y-19219200D01*
X10511305Y-19128994D01*
X10925593Y-18852175D01*
X11202412Y-18437887D01*
X11299618Y-17949200D01*
X11202412Y-17460513D01*
X10925593Y-17046225D01*
X10511305Y-16769406D01*
X10057809Y-16679200D01*
X10511305Y-16588994D01*
X10925593Y-16312175D01*
X11202412Y-15897887D01*
X11299618Y-15409200D01*
X11202412Y-14920513D01*
X10925593Y-14506225D01*
X10511305Y-14229406D01*
X10057809Y-14139200D01*
X10511305Y-14048994D01*
X10925593Y-13772175D01*
X11202412Y-13357887D01*
X11299618Y-12869200D01*
X11202412Y-12380513D01*
X10925593Y-11966225D01*
X10511305Y-11689406D01*
X10057809Y-11599200D01*
X10511305Y-11508994D01*
X10925593Y-11232175D01*
X11202412Y-10817887D01*
X11299618Y-10329200D01*
X11202412Y-9840513D01*
X10925593Y-9426225D01*
X10511305Y-9149406D01*
X10057809Y-9059200D01*
X10511305Y-8968994D01*
X10925593Y-8692175D01*
X11202412Y-8277887D01*
X11299618Y-7789200D01*
X11202412Y-7300513D01*
X10925593Y-6886225D01*
X10511305Y-6609406D01*
X10057809Y-6519200D01*
X10511305Y-6428994D01*
X10925593Y-6152175D01*
X11202412Y-5737887D01*
X11299618Y-5249200D01*
X11202412Y-4760513D01*
X10925593Y-4346225D01*
X10511305Y-4069406D01*
X10135054Y-3994565D01*
X10847600Y-3994565D01*
X11005837Y-3964791D01*
X11151167Y-3871273D01*
X11248664Y-3728581D01*
X11282965Y-3559200D01*
X11282965Y-1859200D01*
X11253191Y-1700963D01*
X11159673Y-1555633D01*
X11016981Y-1458136D01*
X10847600Y-1423835D01*
X9147600Y-1423835D01*
X8989363Y-1453609D01*
X8844033Y-1547127D01*
X8746536Y-1689819D01*
X8712235Y-1859200D01*
X8712235Y-2157200D01*
X7413773Y-2157200D01*
X7403191Y-2100963D01*
X7309673Y-1955633D01*
X7166981Y-1858136D01*
X6997600Y-1823835D01*
X6564657Y-1823835D01*
X6603386Y-1730566D01*
X6603613Y-1470587D01*
X6504334Y-1230311D01*
X6320661Y-1046319D01*
X6080560Y-946620D01*
X5820581Y-946393D01*
X5580305Y-1045672D01*
X5396313Y-1229345D01*
X5296614Y-1469446D01*
X5296387Y-1729425D01*
X5335396Y-1823835D01*
X4997600Y-1823835D01*
X4839363Y-1853609D01*
X4694033Y-1947127D01*
X4596536Y-2089819D01*
X4562235Y-2259200D01*
X3282965Y-2259200D01*
X3282965Y-1859200D01*
X3253191Y-1700963D01*
X3159673Y-1555633D01*
X3016981Y-1458136D01*
X2847600Y-1423835D01*
X1147600Y-1423835D01*
X989363Y-1453609D01*
X844033Y-1547127D01*
X746536Y-1689819D01*
X712235Y-1859200D01*
X712235Y-3559200D01*
X742009Y-3717437D01*
X835527Y-3862767D01*
X978219Y-3960264D01*
X1147600Y-3994565D01*
X1860146Y-3994565D01*
X1483895Y-4069406D01*
X1069607Y-4346225D01*
X792788Y-4760513D01*
X695582Y-5249200D01*
X502000Y-5249200D01*
X502000Y-502000D01*
X11498000Y-502000D01*
X11498000Y-22698000D01*
X11498000Y-22698000D01*
G37*
X11498000Y-22698000D02*
X502000Y-22698000D01*
X502000Y-5249200D01*
X695582Y-5249200D01*
X792788Y-5737887D01*
X1069607Y-6152175D01*
X1483895Y-6428994D01*
X1937391Y-6519200D01*
X1483895Y-6609406D01*
X1069607Y-6886225D01*
X792788Y-7300513D01*
X695582Y-7789200D01*
X792788Y-8277887D01*
X1069607Y-8692175D01*
X1483895Y-8968994D01*
X1937391Y-9059200D01*
X1483895Y-9149406D01*
X1069607Y-9426225D01*
X792788Y-9840513D01*
X695582Y-10329200D01*
X792788Y-10817887D01*
X1069607Y-11232175D01*
X1483895Y-11508994D01*
X1937391Y-11599200D01*
X1483895Y-11689406D01*
X1069607Y-11966225D01*
X792788Y-12380513D01*
X695582Y-12869200D01*
X792788Y-13357887D01*
X1069607Y-13772175D01*
X1483895Y-14048994D01*
X1937391Y-14139200D01*
X1483895Y-14229406D01*
X1069607Y-14506225D01*
X792788Y-14920513D01*
X695582Y-15409200D01*
X792788Y-15897887D01*
X1069607Y-16312175D01*
X1483895Y-16588994D01*
X1937391Y-16679200D01*
X1483895Y-16769406D01*
X1069607Y-17046225D01*
X792788Y-17460513D01*
X695582Y-17949200D01*
X792788Y-18437887D01*
X1069607Y-18852175D01*
X1483895Y-19128994D01*
X1937391Y-19219200D01*
X1483895Y-19309406D01*
X1069607Y-19586225D01*
X792788Y-20000513D01*
X695582Y-20489200D01*
X792788Y-20977887D01*
X1069607Y-21392175D01*
X1483895Y-21668994D01*
X1972582Y-21766200D01*
X2022618Y-21766200D01*
X2511305Y-21668994D01*
X2925593Y-21392175D01*
X3202412Y-20977887D01*
X3299618Y-20489200D01*
X3202412Y-20000513D01*
X2925593Y-19586225D01*
X2511305Y-19309406D01*
X2057809Y-19219200D01*
X2511305Y-19128994D01*
X2925593Y-18852175D01*
X3202412Y-18437887D01*
X3299618Y-17949200D01*
X3202412Y-17460513D01*
X2925593Y-17046225D01*
X2511305Y-16769406D01*
X2057809Y-16679200D01*
X2511305Y-16588994D01*
X2925593Y-16312175D01*
X3202412Y-15897887D01*
X3299618Y-15409200D01*
X3202412Y-14920513D01*
X2925593Y-14506225D01*
X2511305Y-14229406D01*
X2057809Y-14139200D01*
X2511305Y-14048994D01*
X2925593Y-13772175D01*
X3202412Y-13357887D01*
X3299618Y-12869200D01*
X3202412Y-12380513D01*
X2925593Y-11966225D01*
X2511305Y-11689406D01*
X2057809Y-11599200D01*
X2511305Y-11508994D01*
X2925593Y-11232175D01*
X3202412Y-10817887D01*
X3299618Y-10329200D01*
X3202412Y-9840513D01*
X2925593Y-9426225D01*
X2511305Y-9149406D01*
X2057809Y-9059200D01*
X2511305Y-8968994D01*
X2925593Y-8692175D01*
X3202412Y-8277887D01*
X3299618Y-7789200D01*
X3202412Y-7300513D01*
X2925593Y-6886225D01*
X2511305Y-6609406D01*
X2057809Y-6519200D01*
X2511305Y-6428994D01*
X2925593Y-6152175D01*
X3202412Y-5737887D01*
X3299618Y-5249200D01*
X3202412Y-4760513D01*
X2925593Y-4346225D01*
X2511305Y-4069406D01*
X2135054Y-3994565D01*
X2847600Y-3994565D01*
X3005837Y-3964791D01*
X3151167Y-3871273D01*
X3248664Y-3728581D01*
X3282965Y-3559200D01*
X3282965Y-2259200D01*
X4562235Y-2259200D01*
X4562235Y-3159200D01*
X4592009Y-3317437D01*
X4685527Y-3462767D01*
X4828219Y-3560264D01*
X4997600Y-3594565D01*
X5481321Y-3594565D01*
X5346313Y-3729339D01*
X5246614Y-3969440D01*
X5246387Y-4229419D01*
X5301926Y-4363835D01*
X4997600Y-4363835D01*
X4839363Y-4393609D01*
X4694033Y-4487127D01*
X4596536Y-4629819D01*
X4562235Y-4799200D01*
X4562235Y-5699200D01*
X4592009Y-5857437D01*
X4685527Y-6002767D01*
X4828219Y-6100264D01*
X4997600Y-6134565D01*
X5497600Y-6134565D01*
X5551497Y-6124424D01*
X5396313Y-6279339D01*
X5296614Y-6519440D01*
X5296387Y-6779419D01*
X5347794Y-6903835D01*
X4997600Y-6903835D01*
X4839363Y-6933609D01*
X4694033Y-7027127D01*
X4596536Y-7169819D01*
X4562235Y-7339200D01*
X4562235Y-8239200D01*
X4592009Y-8397437D01*
X4685527Y-8542767D01*
X4828219Y-8640264D01*
X4997600Y-8674565D01*
X5497600Y-8674565D01*
X5563844Y-8662100D01*
X5396313Y-8829341D01*
X5296614Y-9069442D01*
X5296387Y-9329421D01*
X5343661Y-9443835D01*
X4997600Y-9443835D01*
X4839363Y-9473609D01*
X4694033Y-9567127D01*
X4596536Y-9709819D01*
X4562235Y-9879200D01*
X4562235Y-10779200D01*
X4592009Y-10937437D01*
X4685527Y-11082767D01*
X4828219Y-11180264D01*
X4997600Y-11214565D01*
X5497600Y-11214565D01*
X5576193Y-11199777D01*
X5396313Y-11379345D01*
X5296614Y-11619446D01*
X5296387Y-11879425D01*
X5339528Y-11983835D01*
X4997600Y-11983835D01*
X4839363Y-12013609D01*
X4694033Y-12107127D01*
X4596536Y-12249819D01*
X4562235Y-12419200D01*
X4562235Y-13319200D01*
X4592009Y-13477437D01*
X4685527Y-13622767D01*
X4828219Y-13720264D01*
X4997600Y-13754565D01*
X5497600Y-13754565D01*
X5655837Y-13724791D01*
X5801167Y-13631273D01*
X5898664Y-13488581D01*
X5932965Y-13319200D01*
X5932965Y-13318429D01*
X6021123Y-13259523D01*
X6062235Y-13218411D01*
X6062235Y-13319200D01*
X6092009Y-13477437D01*
X6185527Y-13622767D01*
X6328219Y-13720264D01*
X6497600Y-13754565D01*
X6997600Y-13754565D01*
X7155837Y-13724791D01*
X7301167Y-13631273D01*
X7398664Y-13488581D01*
X7412309Y-13421200D01*
X8835092Y-13421200D01*
X9069607Y-13772175D01*
X9483895Y-14048994D01*
X9937391Y-14139200D01*
X9483895Y-14229406D01*
X9069607Y-14506225D01*
X8835092Y-14857200D01*
X7413773Y-14857200D01*
X7403191Y-14800963D01*
X7309673Y-14655633D01*
X7166981Y-14558136D01*
X6997600Y-14523835D01*
X6635421Y-14523835D01*
X6653390Y-14480560D01*
X6653617Y-14220581D01*
X6554338Y-13980305D01*
X6370665Y-13796313D01*
X6130564Y-13696614D01*
X5870585Y-13696387D01*
X5630309Y-13795666D01*
X5446317Y-13979339D01*
X5346618Y-14219440D01*
X5346391Y-14479419D01*
X5364743Y-14523835D01*
X4997600Y-14523835D01*
X4839363Y-14553609D01*
X4694033Y-14647127D01*
X4596536Y-14789819D01*
X4562235Y-14959200D01*
X4562235Y-15859200D01*
X4592009Y-16017437D01*
X4685527Y-16162767D01*
X4828219Y-16260264D01*
X4997600Y-16294565D01*
X5497600Y-16294565D01*
X5654353Y-16265070D01*
X5580305Y-16295666D01*
X5396313Y-16479339D01*
X5296614Y-16719440D01*
X5296387Y-16979419D01*
X5331267Y-17063835D01*
X4997600Y-17063835D01*
X4839363Y-17093609D01*
X4694033Y-17187127D01*
X4596536Y-17329819D01*
X4562235Y-17499200D01*
X4562235Y-18399200D01*
X4592009Y-18557437D01*
X4685527Y-18702767D01*
X4828219Y-18800264D01*
X4997600Y-18834565D01*
X5497600Y-18834565D01*
X5551500Y-18824423D01*
X5396313Y-18979341D01*
X5296614Y-19219442D01*
X5296387Y-19479421D01*
X5347793Y-19603835D01*
X4997600Y-19603835D01*
X4839363Y-19633609D01*
X4694033Y-19727127D01*
X4596536Y-19869819D01*
X4562235Y-20039200D01*
X4562235Y-20939200D01*
X4592009Y-21097437D01*
X4685527Y-21242767D01*
X4828219Y-21340264D01*
X4997600Y-21374565D01*
X5497600Y-21374565D01*
X5655837Y-21344791D01*
X5801167Y-21251273D01*
X5898664Y-21108581D01*
X5932965Y-20939200D01*
X5932965Y-20925065D01*
X6001123Y-20879523D01*
X6062235Y-20818411D01*
X6062235Y-20939200D01*
X6092009Y-21097437D01*
X6185527Y-21242767D01*
X6328219Y-21340264D01*
X6497600Y-21374565D01*
X6997600Y-21374565D01*
X7155837Y-21344791D01*
X7301167Y-21251273D01*
X7398664Y-21108581D01*
X7412309Y-21041200D01*
X8835092Y-21041200D01*
X9069607Y-21392175D01*
X9483895Y-21668994D01*
X9972582Y-21766200D01*
X10022618Y-21766200D01*
X10511305Y-21668994D01*
X10925593Y-21392175D01*
X11202412Y-20977887D01*
X11299618Y-20489200D01*
X11202412Y-20000513D01*
X10925593Y-19586225D01*
X10511305Y-19309406D01*
X10057809Y-19219200D01*
X10511305Y-19128994D01*
X10925593Y-18852175D01*
X11202412Y-18437887D01*
X11299618Y-17949200D01*
X11202412Y-17460513D01*
X10925593Y-17046225D01*
X10511305Y-16769406D01*
X10057809Y-16679200D01*
X10511305Y-16588994D01*
X10925593Y-16312175D01*
X11202412Y-15897887D01*
X11299618Y-15409200D01*
X11202412Y-14920513D01*
X10925593Y-14506225D01*
X10511305Y-14229406D01*
X10057809Y-14139200D01*
X10511305Y-14048994D01*
X10925593Y-13772175D01*
X11202412Y-13357887D01*
X11299618Y-12869200D01*
X11202412Y-12380513D01*
X10925593Y-11966225D01*
X10511305Y-11689406D01*
X10057809Y-11599200D01*
X10511305Y-11508994D01*
X10925593Y-11232175D01*
X11202412Y-10817887D01*
X11299618Y-10329200D01*
X11202412Y-9840513D01*
X10925593Y-9426225D01*
X10511305Y-9149406D01*
X10057809Y-9059200D01*
X10511305Y-8968994D01*
X10925593Y-8692175D01*
X11202412Y-8277887D01*
X11299618Y-7789200D01*
X11202412Y-7300513D01*
X10925593Y-6886225D01*
X10511305Y-6609406D01*
X10057809Y-6519200D01*
X10511305Y-6428994D01*
X10925593Y-6152175D01*
X11202412Y-5737887D01*
X11299618Y-5249200D01*
X11202412Y-4760513D01*
X10925593Y-4346225D01*
X10511305Y-4069406D01*
X10135054Y-3994565D01*
X10847600Y-3994565D01*
X11005837Y-3964791D01*
X11151167Y-3871273D01*
X11248664Y-3728581D01*
X11282965Y-3559200D01*
X11282965Y-1859200D01*
X11253191Y-1700963D01*
X11159673Y-1555633D01*
X11016981Y-1458136D01*
X10847600Y-1423835D01*
X9147600Y-1423835D01*
X8989363Y-1453609D01*
X8844033Y-1547127D01*
X8746536Y-1689819D01*
X8712235Y-1859200D01*
X8712235Y-2157200D01*
X7413773Y-2157200D01*
X7403191Y-2100963D01*
X7309673Y-1955633D01*
X7166981Y-1858136D01*
X6997600Y-1823835D01*
X6564657Y-1823835D01*
X6603386Y-1730566D01*
X6603613Y-1470587D01*
X6504334Y-1230311D01*
X6320661Y-1046319D01*
X6080560Y-946620D01*
X5820581Y-946393D01*
X5580305Y-1045672D01*
X5396313Y-1229345D01*
X5296614Y-1469446D01*
X5296387Y-1729425D01*
X5335396Y-1823835D01*
X4997600Y-1823835D01*
X4839363Y-1853609D01*
X4694033Y-1947127D01*
X4596536Y-2089819D01*
X4562235Y-2259200D01*
X3282965Y-2259200D01*
X3282965Y-1859200D01*
X3253191Y-1700963D01*
X3159673Y-1555633D01*
X3016981Y-1458136D01*
X2847600Y-1423835D01*
X1147600Y-1423835D01*
X989363Y-1453609D01*
X844033Y-1547127D01*
X746536Y-1689819D01*
X712235Y-1859200D01*
X712235Y-3559200D01*
X742009Y-3717437D01*
X835527Y-3862767D01*
X978219Y-3960264D01*
X1147600Y-3994565D01*
X1860146Y-3994565D01*
X1483895Y-4069406D01*
X1069607Y-4346225D01*
X792788Y-4760513D01*
X695582Y-5249200D01*
X502000Y-5249200D01*
X502000Y-502000D01*
X11498000Y-502000D01*
X11498000Y-22698000D01*
G36*
X6062235Y-18399200D02*
X6092009Y-18557437D01*
X6185527Y-18702767D01*
X6328219Y-18800264D01*
X6497600Y-18834565D01*
X6997600Y-18834565D01*
X7155837Y-18804791D01*
X7301167Y-18711273D01*
X7398664Y-18568581D01*
X7412309Y-18501200D01*
X8835092Y-18501200D01*
X9069607Y-18852175D01*
X9483895Y-19128994D01*
X9937391Y-19219200D01*
X9483895Y-19309406D01*
X9069607Y-19586225D01*
X8835092Y-19937200D01*
X7413773Y-19937200D01*
X7403191Y-19880963D01*
X7309673Y-19735633D01*
X7166981Y-19638136D01*
X6997600Y-19603835D01*
X6552198Y-19603835D01*
X6603386Y-19480562D01*
X6603613Y-19220583D01*
X6504334Y-18980307D01*
X6320661Y-18796315D01*
X6080560Y-18696616D01*
X5820581Y-18696389D01*
X5807700Y-18701711D01*
X5898664Y-18568581D01*
X5930016Y-18413763D01*
X6041123Y-18339523D01*
X6062235Y-18318411D01*
X6062235Y-18399200D01*
X6062235Y-18399200D01*
G37*
X6062235Y-18399200D02*
X6092009Y-18557437D01*
X6185527Y-18702767D01*
X6328219Y-18800264D01*
X6497600Y-18834565D01*
X6997600Y-18834565D01*
X7155837Y-18804791D01*
X7301167Y-18711273D01*
X7398664Y-18568581D01*
X7412309Y-18501200D01*
X8835092Y-18501200D01*
X9069607Y-18852175D01*
X9483895Y-19128994D01*
X9937391Y-19219200D01*
X9483895Y-19309406D01*
X9069607Y-19586225D01*
X8835092Y-19937200D01*
X7413773Y-19937200D01*
X7403191Y-19880963D01*
X7309673Y-19735633D01*
X7166981Y-19638136D01*
X6997600Y-19603835D01*
X6552198Y-19603835D01*
X6603386Y-19480562D01*
X6603613Y-19220583D01*
X6504334Y-18980307D01*
X6320661Y-18796315D01*
X6080560Y-18696616D01*
X5820581Y-18696389D01*
X5807700Y-18701711D01*
X5898664Y-18568581D01*
X5930016Y-18413763D01*
X6041123Y-18339523D01*
X6062235Y-18318411D01*
X6062235Y-18399200D01*
G36*
X6062235Y-15859200D02*
X6092009Y-16017437D01*
X6185527Y-16162767D01*
X6328219Y-16260264D01*
X6497600Y-16294565D01*
X6997600Y-16294565D01*
X7155837Y-16264791D01*
X7301167Y-16171273D01*
X7398664Y-16028581D01*
X7412309Y-15961200D01*
X8835092Y-15961200D01*
X9069607Y-16312175D01*
X9483895Y-16588994D01*
X9937391Y-16679200D01*
X9483895Y-16769406D01*
X9069607Y-17046225D01*
X8835092Y-17397200D01*
X7413773Y-17397200D01*
X7403191Y-17340963D01*
X7309673Y-17195633D01*
X7166981Y-17098136D01*
X6997600Y-17063835D01*
X6568807Y-17063835D01*
X6603386Y-16980560D01*
X6603613Y-16720581D01*
X6504334Y-16480305D01*
X6320661Y-16296313D01*
X6080560Y-16196614D01*
X5820581Y-16196387D01*
X5657287Y-16263858D01*
X5801167Y-16171273D01*
X5898664Y-16028581D01*
X5923756Y-15904673D01*
X6062235Y-15812144D01*
X6062235Y-15859200D01*
X6062235Y-15859200D01*
G37*
X6062235Y-15859200D02*
X6092009Y-16017437D01*
X6185527Y-16162767D01*
X6328219Y-16260264D01*
X6497600Y-16294565D01*
X6997600Y-16294565D01*
X7155837Y-16264791D01*
X7301167Y-16171273D01*
X7398664Y-16028581D01*
X7412309Y-15961200D01*
X8835092Y-15961200D01*
X9069607Y-16312175D01*
X9483895Y-16588994D01*
X9937391Y-16679200D01*
X9483895Y-16769406D01*
X9069607Y-17046225D01*
X8835092Y-17397200D01*
X7413773Y-17397200D01*
X7403191Y-17340963D01*
X7309673Y-17195633D01*
X7166981Y-17098136D01*
X6997600Y-17063835D01*
X6568807Y-17063835D01*
X6603386Y-16980560D01*
X6603613Y-16720581D01*
X6504334Y-16480305D01*
X6320661Y-16296313D01*
X6080560Y-16196614D01*
X5820581Y-16196387D01*
X5657287Y-16263858D01*
X5801167Y-16171273D01*
X5898664Y-16028581D01*
X5923756Y-15904673D01*
X6062235Y-15812144D01*
X6062235Y-15859200D01*
G36*
X6062235Y-10779200D02*
X6092009Y-10937437D01*
X6185527Y-11082767D01*
X6328219Y-11180264D01*
X6497600Y-11214565D01*
X6997600Y-11214565D01*
X7155837Y-11184791D01*
X7301167Y-11091273D01*
X7398664Y-10948581D01*
X7412309Y-10881200D01*
X8835092Y-10881200D01*
X9069607Y-11232175D01*
X9483895Y-11508994D01*
X9937391Y-11599200D01*
X9483895Y-11689406D01*
X9069607Y-11966225D01*
X8835092Y-12317200D01*
X7413773Y-12317200D01*
X7403191Y-12260963D01*
X7309673Y-12115633D01*
X7166981Y-12018136D01*
X6997600Y-11983835D01*
X6560505Y-11983835D01*
X6603386Y-11880566D01*
X6603613Y-11620587D01*
X6504334Y-11380311D01*
X6320661Y-11196319D01*
X6080560Y-11096620D01*
X5820581Y-11096393D01*
X5744104Y-11127992D01*
X5801167Y-11091273D01*
X5898664Y-10948581D01*
X5932965Y-10779200D01*
X5932965Y-10771747D01*
X6011123Y-10719523D01*
X6062235Y-10668411D01*
X6062235Y-10779200D01*
X6062235Y-10779200D01*
G37*
X6062235Y-10779200D02*
X6092009Y-10937437D01*
X6185527Y-11082767D01*
X6328219Y-11180264D01*
X6497600Y-11214565D01*
X6997600Y-11214565D01*
X7155837Y-11184791D01*
X7301167Y-11091273D01*
X7398664Y-10948581D01*
X7412309Y-10881200D01*
X8835092Y-10881200D01*
X9069607Y-11232175D01*
X9483895Y-11508994D01*
X9937391Y-11599200D01*
X9483895Y-11689406D01*
X9069607Y-11966225D01*
X8835092Y-12317200D01*
X7413773Y-12317200D01*
X7403191Y-12260963D01*
X7309673Y-12115633D01*
X7166981Y-12018136D01*
X6997600Y-11983835D01*
X6560505Y-11983835D01*
X6603386Y-11880566D01*
X6603613Y-11620587D01*
X6504334Y-11380311D01*
X6320661Y-11196319D01*
X6080560Y-11096620D01*
X5820581Y-11096393D01*
X5744104Y-11127992D01*
X5801167Y-11091273D01*
X5898664Y-10948581D01*
X5932965Y-10779200D01*
X5932965Y-10771747D01*
X6011123Y-10719523D01*
X6062235Y-10668411D01*
X6062235Y-10779200D01*
G36*
X6062235Y-8239200D02*
X6092009Y-8397437D01*
X6185527Y-8542767D01*
X6328219Y-8640264D01*
X6497600Y-8674565D01*
X6997600Y-8674565D01*
X7155837Y-8644791D01*
X7301167Y-8551273D01*
X7398664Y-8408581D01*
X7412309Y-8341200D01*
X8835092Y-8341200D01*
X9069607Y-8692175D01*
X9483895Y-8968994D01*
X9937391Y-9059200D01*
X9483895Y-9149406D01*
X9069607Y-9426225D01*
X8835092Y-9777200D01*
X7413773Y-9777200D01*
X7403191Y-9720963D01*
X7309673Y-9575633D01*
X7166981Y-9478136D01*
X6997600Y-9443835D01*
X6556351Y-9443835D01*
X6603386Y-9330562D01*
X6603613Y-9070583D01*
X6504334Y-8830307D01*
X6320661Y-8646315D01*
X6080560Y-8546616D01*
X5820581Y-8546389D01*
X5787543Y-8560040D01*
X5801167Y-8551273D01*
X5898664Y-8408581D01*
X5932965Y-8239200D01*
X5932965Y-8191656D01*
X5951123Y-8179523D01*
X6062235Y-8068411D01*
X6062235Y-8239200D01*
X6062235Y-8239200D01*
G37*
X6062235Y-8239200D02*
X6092009Y-8397437D01*
X6185527Y-8542767D01*
X6328219Y-8640264D01*
X6497600Y-8674565D01*
X6997600Y-8674565D01*
X7155837Y-8644791D01*
X7301167Y-8551273D01*
X7398664Y-8408581D01*
X7412309Y-8341200D01*
X8835092Y-8341200D01*
X9069607Y-8692175D01*
X9483895Y-8968994D01*
X9937391Y-9059200D01*
X9483895Y-9149406D01*
X9069607Y-9426225D01*
X8835092Y-9777200D01*
X7413773Y-9777200D01*
X7403191Y-9720963D01*
X7309673Y-9575633D01*
X7166981Y-9478136D01*
X6997600Y-9443835D01*
X6556351Y-9443835D01*
X6603386Y-9330562D01*
X6603613Y-9070583D01*
X6504334Y-8830307D01*
X6320661Y-8646315D01*
X6080560Y-8546616D01*
X5820581Y-8546389D01*
X5787543Y-8560040D01*
X5801167Y-8551273D01*
X5898664Y-8408581D01*
X5932965Y-8239200D01*
X5932965Y-8191656D01*
X5951123Y-8179523D01*
X6062235Y-8068411D01*
X6062235Y-8239200D01*
G36*
X6062235Y-5699200D02*
X6092009Y-5857437D01*
X6185527Y-6002767D01*
X6328219Y-6100264D01*
X6497600Y-6134565D01*
X6997600Y-6134565D01*
X7155837Y-6104791D01*
X7301167Y-6011273D01*
X7398664Y-5868581D01*
X7412309Y-5801200D01*
X8835092Y-5801200D01*
X9069607Y-6152175D01*
X9483895Y-6428994D01*
X9937391Y-6519200D01*
X9483895Y-6609406D01*
X9069607Y-6886225D01*
X8835092Y-7237200D01*
X7413773Y-7237200D01*
X7403191Y-7180963D01*
X7309673Y-7035633D01*
X7166981Y-6938136D01*
X6997600Y-6903835D01*
X6552198Y-6903835D01*
X6603386Y-6780560D01*
X6603613Y-6520581D01*
X6504334Y-6280305D01*
X6320661Y-6096313D01*
X6080560Y-5996614D01*
X5820581Y-5996387D01*
X5807702Y-6001708D01*
X5898664Y-5868581D01*
X5932965Y-5699200D01*
X5932965Y-5597681D01*
X6062235Y-5468411D01*
X6062235Y-5699200D01*
X6062235Y-5699200D01*
G37*
X6062235Y-5699200D02*
X6092009Y-5857437D01*
X6185527Y-6002767D01*
X6328219Y-6100264D01*
X6497600Y-6134565D01*
X6997600Y-6134565D01*
X7155837Y-6104791D01*
X7301167Y-6011273D01*
X7398664Y-5868581D01*
X7412309Y-5801200D01*
X8835092Y-5801200D01*
X9069607Y-6152175D01*
X9483895Y-6428994D01*
X9937391Y-6519200D01*
X9483895Y-6609406D01*
X9069607Y-6886225D01*
X8835092Y-7237200D01*
X7413773Y-7237200D01*
X7403191Y-7180963D01*
X7309673Y-7035633D01*
X7166981Y-6938136D01*
X6997600Y-6903835D01*
X6552198Y-6903835D01*
X6603386Y-6780560D01*
X6603613Y-6520581D01*
X6504334Y-6280305D01*
X6320661Y-6096313D01*
X6080560Y-5996614D01*
X5820581Y-5996387D01*
X5807702Y-6001708D01*
X5898664Y-5868581D01*
X5932965Y-5699200D01*
X5932965Y-5597681D01*
X6062235Y-5468411D01*
X6062235Y-5699200D01*
G36*
X6062235Y-3159200D02*
X6092009Y-3317437D01*
X6185527Y-3462767D01*
X6328219Y-3560264D01*
X6497600Y-3594565D01*
X6997600Y-3594565D01*
X7155837Y-3564791D01*
X7301167Y-3471273D01*
X7398664Y-3328581D01*
X7412309Y-3261200D01*
X8712235Y-3261200D01*
X8712235Y-3559200D01*
X8742009Y-3717437D01*
X8835527Y-3862767D01*
X8978219Y-3960264D01*
X9147600Y-3994565D01*
X9860146Y-3994565D01*
X9483895Y-4069406D01*
X9069607Y-4346225D01*
X8835092Y-4697200D01*
X7413773Y-4697200D01*
X7403191Y-4640963D01*
X7309673Y-4495633D01*
X7166981Y-4398136D01*
X6997600Y-4363835D01*
X6498045Y-4363835D01*
X6553386Y-4230560D01*
X6553613Y-3970581D01*
X6454334Y-3730305D01*
X6270661Y-3546313D01*
X6030560Y-3446614D01*
X5818142Y-3446429D01*
X5898664Y-3328581D01*
X5931581Y-3166036D01*
X6031123Y-3099523D01*
X6062235Y-3068411D01*
X6062235Y-3159200D01*
X6062235Y-3159200D01*
G37*
X6062235Y-3159200D02*
X6092009Y-3317437D01*
X6185527Y-3462767D01*
X6328219Y-3560264D01*
X6497600Y-3594565D01*
X6997600Y-3594565D01*
X7155837Y-3564791D01*
X7301167Y-3471273D01*
X7398664Y-3328581D01*
X7412309Y-3261200D01*
X8712235Y-3261200D01*
X8712235Y-3559200D01*
X8742009Y-3717437D01*
X8835527Y-3862767D01*
X8978219Y-3960264D01*
X9147600Y-3994565D01*
X9860146Y-3994565D01*
X9483895Y-4069406D01*
X9069607Y-4346225D01*
X8835092Y-4697200D01*
X7413773Y-4697200D01*
X7403191Y-4640963D01*
X7309673Y-4495633D01*
X7166981Y-4398136D01*
X6997600Y-4363835D01*
X6498045Y-4363835D01*
X6553386Y-4230560D01*
X6553613Y-3970581D01*
X6454334Y-3730305D01*
X6270661Y-3546313D01*
X6030560Y-3446614D01*
X5818142Y-3446429D01*
X5898664Y-3328581D01*
X5931581Y-3166036D01*
X6031123Y-3099523D01*
X6062235Y-3068411D01*
X6062235Y-3159200D01*
M02*
