M48
;DRILL file {KiCad 4.0.7} date 11/27/17 18:36:43
;FORMAT={-:-/ absolute / metric / decimal}
FMAT,2
METRIC,TZ
T1C0.300
T2C1.000
%
G90
G05
M71
T1
X5.9Y-4.1
X5.95Y-1.6
X5.95Y-6.65
X5.95Y-9.2
X5.95Y-11.75
X5.95Y-16.85
X5.95Y-19.35
X6.Y-14.35
T2
X1.998Y-2.709
X1.998Y-5.249
X1.998Y-7.789
X1.998Y-10.329
X1.998Y-12.869
X1.998Y-15.409
X1.998Y-17.949
X1.998Y-20.489
X9.998Y-2.709
X9.998Y-5.249
X9.998Y-7.789
X9.998Y-10.329
X9.998Y-12.869
X9.998Y-15.409
X9.998Y-17.949
X9.998Y-20.489
T0
M30
