%TF.GenerationSoftware,KiCad,Pcbnew,4.0.7*%
%TF.CreationDate,2017-11-27T18:36:53+08:00*%
%TF.ProjectId,LED_R,4C45445F522E6B696361645F70636200,rev?*%
%TF.FileFunction,Legend,Top*%
%FSLAX46Y46*%
G04 Gerber Fmt 4.6, Leading zero omitted, Abs format (unit mm)*
G04 Created by KiCad (PCBNEW 4.0.7) date 11/27/17 18:36:53*
%MOMM*%
%LPD*%
G01*
G04 APERTURE LIST*
%ADD10C,0.100000*%
%ADD11C,0.200000*%
%ADD12C,0.150000*%
%ADD13C,0.120000*%
G04 APERTURE END LIST*
D10*
D11*
X7950000Y-1100000D02*
X6950000Y-1100000D01*
X7450000Y-1600000D02*
X7450000Y-600000D01*
D12*
X5597600Y-20489200D02*
X6367600Y-20489200D01*
X6367600Y-20089200D02*
X6367600Y-20919200D01*
D13*
X4197600Y-19789200D02*
X4197600Y-21189200D01*
X4197600Y-21189200D02*
X6997600Y-21189200D01*
X4197600Y-19789200D02*
X6997600Y-19789200D01*
D12*
X5597600Y-17949200D02*
X6367600Y-17949200D01*
X6367600Y-17549200D02*
X6367600Y-18379200D01*
D13*
X4197600Y-17249200D02*
X4197600Y-18649200D01*
X4197600Y-18649200D02*
X6997600Y-18649200D01*
X4197600Y-17249200D02*
X6997600Y-17249200D01*
D12*
X5597600Y-15409200D02*
X6367600Y-15409200D01*
X6367600Y-15009200D02*
X6367600Y-15839200D01*
D13*
X4197600Y-14709200D02*
X4197600Y-16109200D01*
X4197600Y-16109200D02*
X6997600Y-16109200D01*
X4197600Y-14709200D02*
X6997600Y-14709200D01*
D12*
X5597600Y-12869200D02*
X6367600Y-12869200D01*
X6367600Y-12469200D02*
X6367600Y-13299200D01*
D13*
X4197600Y-12169200D02*
X4197600Y-13569200D01*
X4197600Y-13569200D02*
X6997600Y-13569200D01*
X4197600Y-12169200D02*
X6997600Y-12169200D01*
D12*
X5597600Y-10329200D02*
X6367600Y-10329200D01*
X6367600Y-9929200D02*
X6367600Y-10759200D01*
D13*
X4197600Y-9629200D02*
X4197600Y-11029200D01*
X4197600Y-11029200D02*
X6997600Y-11029200D01*
X4197600Y-9629200D02*
X6997600Y-9629200D01*
D12*
X5597600Y-7789200D02*
X6367600Y-7789200D01*
X6367600Y-7389200D02*
X6367600Y-8219200D01*
D13*
X4197600Y-7089200D02*
X4197600Y-8489200D01*
X4197600Y-8489200D02*
X6997600Y-8489200D01*
X4197600Y-7089200D02*
X6997600Y-7089200D01*
D12*
X5597600Y-5249200D02*
X6367600Y-5249200D01*
X6367600Y-4849200D02*
X6367600Y-5679200D01*
D13*
X4197600Y-4549200D02*
X4197600Y-5949200D01*
X4197600Y-5949200D02*
X6997600Y-5949200D01*
X4197600Y-4549200D02*
X6997600Y-4549200D01*
D12*
X5597600Y-2709200D02*
X6367600Y-2709200D01*
X6367600Y-2309200D02*
X6367600Y-3139200D01*
D13*
X4197600Y-2009200D02*
X4197600Y-3409200D01*
X4197600Y-3409200D02*
X6997600Y-3409200D01*
X4197600Y-2009200D02*
X6997600Y-2009200D01*
X8667600Y-21819200D02*
X11327600Y-21819200D01*
X8667600Y-3979200D02*
X8667600Y-21819200D01*
X11327600Y-3979200D02*
X11327600Y-21819200D01*
X8667600Y-3979200D02*
X11327600Y-3979200D01*
X8667600Y-2709200D02*
X8667600Y-1379200D01*
X8667600Y-1379200D02*
X9997600Y-1379200D01*
X667600Y-21819200D02*
X3327600Y-21819200D01*
X667600Y-3979200D02*
X667600Y-21819200D01*
X3327600Y-3979200D02*
X3327600Y-21819200D01*
X667600Y-3979200D02*
X3327600Y-3979200D01*
X667600Y-2709200D02*
X667600Y-1379200D01*
X667600Y-1379200D02*
X1997600Y-1379200D01*
D10*
D12*
D10*
D12*
M02*
