G04 #@! TF.FileFunction,Copper,L2,Bot,Signal*
%FSLAX46Y46*%
G04 Gerber Fmt 4.6, Leading zero omitted, Abs format (unit mm)*
G04 Created by KiCad (PCBNEW 4.0.7) date 11/15/17 16:50:02*
%MOMM*%
%LPD*%
G01*
G04 APERTURE LIST*
%ADD10C,0.100000*%
%ADD11C,0.325000*%
%ADD12R,1.700000X1.700000*%
%ADD13O,1.700000X1.700000*%
%ADD14R,0.500000X0.900000*%
%ADD15C,0.453000*%
%ADD16C,0.250000*%
%ADD17C,0.254000*%
G04 APERTURE END LIST*
D10*
D11*
X166855952Y-131938095D02*
X166422619Y-133238095D01*
X165989286Y-131938095D01*
X165555952Y-133114286D02*
X165494047Y-133176190D01*
X165555952Y-133238095D01*
X165617857Y-133176190D01*
X165555952Y-133114286D01*
X165555952Y-133238095D01*
X164689285Y-131938095D02*
X164565476Y-131938095D01*
X164441666Y-132000000D01*
X164379761Y-132061905D01*
X164317857Y-132185714D01*
X164255952Y-132433333D01*
X164255952Y-132742857D01*
X164317857Y-132990476D01*
X164379761Y-133114286D01*
X164441666Y-133176190D01*
X164565476Y-133238095D01*
X164689285Y-133238095D01*
X164813095Y-133176190D01*
X164874999Y-133114286D01*
X164936904Y-132990476D01*
X164998809Y-132742857D01*
X164998809Y-132433333D01*
X164936904Y-132185714D01*
X164874999Y-132061905D01*
X164813095Y-132000000D01*
X164689285Y-131938095D01*
X163017857Y-133238095D02*
X163760714Y-133238095D01*
X163389285Y-133238095D02*
X163389285Y-131938095D01*
X163513095Y-132123810D01*
X163636904Y-132247619D01*
X163760714Y-132309524D01*
D12*
X168947600Y-113109200D03*
D13*
X168947600Y-115649200D03*
X168947600Y-118189200D03*
X168947600Y-120729200D03*
X168947600Y-123269200D03*
X168947600Y-125809200D03*
X168947600Y-128349200D03*
X168947600Y-130889200D03*
D12*
X160947600Y-113109200D03*
D13*
X160947600Y-115649200D03*
X160947600Y-118189200D03*
X160947600Y-120729200D03*
X160947600Y-123269200D03*
X160947600Y-125809200D03*
X160947600Y-128349200D03*
X160947600Y-130889200D03*
D14*
X164197600Y-113109200D03*
X165697600Y-113109200D03*
X164197600Y-115649200D03*
X165697600Y-115649200D03*
X164197600Y-118189200D03*
X165697600Y-118189200D03*
X164197600Y-120729200D03*
X165697600Y-120729200D03*
X164197600Y-123269200D03*
X165697600Y-123269200D03*
X164197600Y-125809200D03*
X165697600Y-125809200D03*
X164197600Y-128349200D03*
X165697600Y-128349200D03*
X164197600Y-130889200D03*
X165697600Y-130889200D03*
D15*
X164900000Y-112000006D03*
X164850000Y-114500000D03*
X164900000Y-117050000D03*
X164900000Y-119600002D03*
X164900000Y-122150006D03*
X164950004Y-124750000D03*
X164900000Y-127250000D03*
X164900000Y-129750002D03*
D16*
X164197600Y-113109200D02*
X164590800Y-113109200D01*
X164590800Y-113109200D02*
X164900000Y-112800000D01*
X164900000Y-112800000D02*
X164900000Y-112000006D01*
X164197600Y-115649200D02*
X164450800Y-115649200D01*
X164450800Y-115649200D02*
X164850000Y-115250000D01*
X164850000Y-115250000D02*
X164850000Y-114500000D01*
X164197600Y-118189200D02*
X164510800Y-118189200D01*
X164510800Y-118189200D02*
X164900000Y-117800000D01*
X164900000Y-117800000D02*
X164900000Y-117050000D01*
X164197600Y-120729200D02*
X164570800Y-120729200D01*
X164570800Y-120729200D02*
X164900000Y-120400000D01*
X164900000Y-120400000D02*
X164900000Y-119600002D01*
X164197600Y-123269200D02*
X164580800Y-123269200D01*
X164580800Y-123269200D02*
X164900000Y-122950000D01*
X164900000Y-122950000D02*
X164900000Y-122150006D01*
X164197600Y-125809200D02*
X164640800Y-125809200D01*
X164640800Y-125809200D02*
X164950004Y-125499996D01*
X164950004Y-125499996D02*
X164950004Y-124750000D01*
X164197600Y-128349200D02*
X164600800Y-128349200D01*
X164600800Y-128349200D02*
X164900000Y-128050000D01*
X164900000Y-128050000D02*
X164900000Y-127250000D01*
X164197600Y-130889200D02*
X164560800Y-130889200D01*
X164560800Y-130889200D02*
X164900000Y-130550000D01*
X164900000Y-130550000D02*
X164900000Y-129750002D01*
X168947600Y-113109200D02*
X165697600Y-113109200D01*
X168947600Y-115649200D02*
X165697600Y-115649200D01*
X168947600Y-118189200D02*
X165697600Y-118189200D01*
X165697600Y-120729200D02*
X166197600Y-120729200D01*
X166197600Y-120729200D02*
X168947600Y-120729200D01*
X168947600Y-123269200D02*
X167745519Y-123269200D01*
X167745519Y-123269200D02*
X165697600Y-123269200D01*
X168947600Y-125809200D02*
X167745519Y-125809200D01*
X167745519Y-125809200D02*
X165697600Y-125809200D01*
X168947600Y-128349200D02*
X167745519Y-128349200D01*
X167745519Y-128349200D02*
X165697600Y-128349200D01*
X168745519Y-130889200D02*
X165697600Y-130889200D01*
D17*
G36*
X159868453Y-131939254D02*
X160350222Y-132261161D01*
X160918507Y-132374200D01*
X160976693Y-132374200D01*
X161544978Y-132261161D01*
X162026747Y-131939254D01*
X162135238Y-131776885D01*
X162135238Y-132890000D01*
X159660000Y-132890000D01*
X159660000Y-131627281D01*
X159868453Y-131939254D01*
X159868453Y-131939254D01*
G37*
X159868453Y-131939254D02*
X160350222Y-132261161D01*
X160918507Y-132374200D01*
X160976693Y-132374200D01*
X161544978Y-132261161D01*
X162026747Y-131939254D01*
X162135238Y-131776885D01*
X162135238Y-132890000D01*
X159660000Y-132890000D01*
X159660000Y-131627281D01*
X159868453Y-131939254D01*
G36*
X170240000Y-132890000D02*
X167614762Y-132890000D01*
X167614762Y-131649200D01*
X167674646Y-131649200D01*
X167868453Y-131939254D01*
X168350222Y-132261161D01*
X168918507Y-132374200D01*
X168976693Y-132374200D01*
X169544978Y-132261161D01*
X170026747Y-131939254D01*
X170240000Y-131620098D01*
X170240000Y-132890000D01*
X170240000Y-132890000D01*
G37*
X170240000Y-132890000D02*
X167614762Y-132890000D01*
X167614762Y-131649200D01*
X167674646Y-131649200D01*
X167868453Y-131939254D01*
X168350222Y-132261161D01*
X168918507Y-132374200D01*
X168976693Y-132374200D01*
X169544978Y-132261161D01*
X170026747Y-131939254D01*
X170240000Y-131620098D01*
X170240000Y-132890000D01*
G36*
X170240000Y-111792939D02*
X170049490Y-111662769D01*
X169797600Y-111611760D01*
X168097600Y-111611760D01*
X167862283Y-111656038D01*
X167646159Y-111795110D01*
X167501169Y-112007310D01*
X167450160Y-112259200D01*
X167450160Y-112349200D01*
X166502705Y-112349200D01*
X166411690Y-112207759D01*
X166199490Y-112062769D01*
X165947600Y-112011760D01*
X165761490Y-112011760D01*
X165761649Y-111829395D01*
X165630770Y-111512643D01*
X165388638Y-111270088D01*
X165072115Y-111138656D01*
X164729389Y-111138357D01*
X164412637Y-111269236D01*
X164170082Y-111511368D01*
X164038650Y-111827891D01*
X164038490Y-112011760D01*
X163947600Y-112011760D01*
X163712283Y-112056038D01*
X163496159Y-112195110D01*
X163351169Y-112407310D01*
X163300160Y-112659200D01*
X163300160Y-113559200D01*
X163344438Y-113794517D01*
X163483510Y-114010641D01*
X163695710Y-114155631D01*
X163947600Y-114206640D01*
X164038995Y-114206640D01*
X163988650Y-114327885D01*
X163988455Y-114551760D01*
X163947600Y-114551760D01*
X163712283Y-114596038D01*
X163496159Y-114735110D01*
X163351169Y-114947310D01*
X163300160Y-115199200D01*
X163300160Y-116099200D01*
X163344438Y-116334517D01*
X163483510Y-116550641D01*
X163695710Y-116695631D01*
X163947600Y-116746640D01*
X164093148Y-116746640D01*
X164038650Y-116877885D01*
X164038463Y-117091760D01*
X163947600Y-117091760D01*
X163712283Y-117136038D01*
X163496159Y-117275110D01*
X163351169Y-117487310D01*
X163300160Y-117739200D01*
X163300160Y-118639200D01*
X163344438Y-118874517D01*
X163483510Y-119090641D01*
X163695710Y-119235631D01*
X163947600Y-119286640D01*
X164097301Y-119286640D01*
X164038650Y-119427887D01*
X164038472Y-119631760D01*
X163947600Y-119631760D01*
X163712283Y-119676038D01*
X163496159Y-119815110D01*
X163351169Y-120027310D01*
X163300160Y-120279200D01*
X163300160Y-121179200D01*
X163344438Y-121414517D01*
X163483510Y-121630641D01*
X163695710Y-121775631D01*
X163947600Y-121826640D01*
X164101455Y-121826640D01*
X164038650Y-121977891D01*
X164038481Y-122171760D01*
X163947600Y-122171760D01*
X163712283Y-122216038D01*
X163496159Y-122355110D01*
X163351169Y-122567310D01*
X163300160Y-122819200D01*
X163300160Y-123719200D01*
X163344438Y-123954517D01*
X163483510Y-124170641D01*
X163695710Y-124315631D01*
X163947600Y-124366640D01*
X164176371Y-124366640D01*
X164088654Y-124577885D01*
X164088537Y-124711760D01*
X163947600Y-124711760D01*
X163712283Y-124756038D01*
X163496159Y-124895110D01*
X163351169Y-125107310D01*
X163300160Y-125359200D01*
X163300160Y-126259200D01*
X163344438Y-126494517D01*
X163483510Y-126710641D01*
X163695710Y-126855631D01*
X163947600Y-126906640D01*
X164109757Y-126906640D01*
X164038650Y-127077885D01*
X164038498Y-127251760D01*
X163947600Y-127251760D01*
X163712283Y-127296038D01*
X163496159Y-127435110D01*
X163351169Y-127647310D01*
X163300160Y-127899200D01*
X163300160Y-128799200D01*
X163344438Y-129034517D01*
X163483510Y-129250641D01*
X163695710Y-129395631D01*
X163947600Y-129446640D01*
X164093149Y-129446640D01*
X164038650Y-129577887D01*
X164038463Y-129791760D01*
X163947600Y-129791760D01*
X163712283Y-129836038D01*
X163496159Y-129975110D01*
X163351169Y-130187310D01*
X163300160Y-130439200D01*
X163300160Y-130942500D01*
X162451091Y-130942500D01*
X162461693Y-130889200D01*
X162348654Y-130320915D01*
X162026747Y-129839146D01*
X161697574Y-129619200D01*
X162026747Y-129399254D01*
X162348654Y-128917485D01*
X162461693Y-128349200D01*
X162348654Y-127780915D01*
X162026747Y-127299146D01*
X161697574Y-127079200D01*
X162026747Y-126859254D01*
X162348654Y-126377485D01*
X162461693Y-125809200D01*
X162348654Y-125240915D01*
X162026747Y-124759146D01*
X161697574Y-124539200D01*
X162026747Y-124319254D01*
X162348654Y-123837485D01*
X162461693Y-123269200D01*
X162348654Y-122700915D01*
X162026747Y-122219146D01*
X161697574Y-121999200D01*
X162026747Y-121779254D01*
X162348654Y-121297485D01*
X162461693Y-120729200D01*
X162348654Y-120160915D01*
X162026747Y-119679146D01*
X161697574Y-119459200D01*
X162026747Y-119239254D01*
X162348654Y-118757485D01*
X162461693Y-118189200D01*
X162348654Y-117620915D01*
X162026747Y-117139146D01*
X161697574Y-116919200D01*
X162026747Y-116699254D01*
X162348654Y-116217485D01*
X162461693Y-115649200D01*
X162348654Y-115080915D01*
X162026747Y-114599146D01*
X161985148Y-114571350D01*
X162032917Y-114562362D01*
X162249041Y-114423290D01*
X162394031Y-114211090D01*
X162445040Y-113959200D01*
X162445040Y-112259200D01*
X162400762Y-112023883D01*
X162261690Y-111807759D01*
X162049490Y-111662769D01*
X161797600Y-111611760D01*
X160097600Y-111611760D01*
X159862283Y-111656038D01*
X159660000Y-111786204D01*
X159660000Y-111110000D01*
X170240000Y-111110000D01*
X170240000Y-111792939D01*
X170240000Y-111792939D01*
G37*
X170240000Y-111792939D02*
X170049490Y-111662769D01*
X169797600Y-111611760D01*
X168097600Y-111611760D01*
X167862283Y-111656038D01*
X167646159Y-111795110D01*
X167501169Y-112007310D01*
X167450160Y-112259200D01*
X167450160Y-112349200D01*
X166502705Y-112349200D01*
X166411690Y-112207759D01*
X166199490Y-112062769D01*
X165947600Y-112011760D01*
X165761490Y-112011760D01*
X165761649Y-111829395D01*
X165630770Y-111512643D01*
X165388638Y-111270088D01*
X165072115Y-111138656D01*
X164729389Y-111138357D01*
X164412637Y-111269236D01*
X164170082Y-111511368D01*
X164038650Y-111827891D01*
X164038490Y-112011760D01*
X163947600Y-112011760D01*
X163712283Y-112056038D01*
X163496159Y-112195110D01*
X163351169Y-112407310D01*
X163300160Y-112659200D01*
X163300160Y-113559200D01*
X163344438Y-113794517D01*
X163483510Y-114010641D01*
X163695710Y-114155631D01*
X163947600Y-114206640D01*
X164038995Y-114206640D01*
X163988650Y-114327885D01*
X163988455Y-114551760D01*
X163947600Y-114551760D01*
X163712283Y-114596038D01*
X163496159Y-114735110D01*
X163351169Y-114947310D01*
X163300160Y-115199200D01*
X163300160Y-116099200D01*
X163344438Y-116334517D01*
X163483510Y-116550641D01*
X163695710Y-116695631D01*
X163947600Y-116746640D01*
X164093148Y-116746640D01*
X164038650Y-116877885D01*
X164038463Y-117091760D01*
X163947600Y-117091760D01*
X163712283Y-117136038D01*
X163496159Y-117275110D01*
X163351169Y-117487310D01*
X163300160Y-117739200D01*
X163300160Y-118639200D01*
X163344438Y-118874517D01*
X163483510Y-119090641D01*
X163695710Y-119235631D01*
X163947600Y-119286640D01*
X164097301Y-119286640D01*
X164038650Y-119427887D01*
X164038472Y-119631760D01*
X163947600Y-119631760D01*
X163712283Y-119676038D01*
X163496159Y-119815110D01*
X163351169Y-120027310D01*
X163300160Y-120279200D01*
X163300160Y-121179200D01*
X163344438Y-121414517D01*
X163483510Y-121630641D01*
X163695710Y-121775631D01*
X163947600Y-121826640D01*
X164101455Y-121826640D01*
X164038650Y-121977891D01*
X164038481Y-122171760D01*
X163947600Y-122171760D01*
X163712283Y-122216038D01*
X163496159Y-122355110D01*
X163351169Y-122567310D01*
X163300160Y-122819200D01*
X163300160Y-123719200D01*
X163344438Y-123954517D01*
X163483510Y-124170641D01*
X163695710Y-124315631D01*
X163947600Y-124366640D01*
X164176371Y-124366640D01*
X164088654Y-124577885D01*
X164088537Y-124711760D01*
X163947600Y-124711760D01*
X163712283Y-124756038D01*
X163496159Y-124895110D01*
X163351169Y-125107310D01*
X163300160Y-125359200D01*
X163300160Y-126259200D01*
X163344438Y-126494517D01*
X163483510Y-126710641D01*
X163695710Y-126855631D01*
X163947600Y-126906640D01*
X164109757Y-126906640D01*
X164038650Y-127077885D01*
X164038498Y-127251760D01*
X163947600Y-127251760D01*
X163712283Y-127296038D01*
X163496159Y-127435110D01*
X163351169Y-127647310D01*
X163300160Y-127899200D01*
X163300160Y-128799200D01*
X163344438Y-129034517D01*
X163483510Y-129250641D01*
X163695710Y-129395631D01*
X163947600Y-129446640D01*
X164093149Y-129446640D01*
X164038650Y-129577887D01*
X164038463Y-129791760D01*
X163947600Y-129791760D01*
X163712283Y-129836038D01*
X163496159Y-129975110D01*
X163351169Y-130187310D01*
X163300160Y-130439200D01*
X163300160Y-130942500D01*
X162451091Y-130942500D01*
X162461693Y-130889200D01*
X162348654Y-130320915D01*
X162026747Y-129839146D01*
X161697574Y-129619200D01*
X162026747Y-129399254D01*
X162348654Y-128917485D01*
X162461693Y-128349200D01*
X162348654Y-127780915D01*
X162026747Y-127299146D01*
X161697574Y-127079200D01*
X162026747Y-126859254D01*
X162348654Y-126377485D01*
X162461693Y-125809200D01*
X162348654Y-125240915D01*
X162026747Y-124759146D01*
X161697574Y-124539200D01*
X162026747Y-124319254D01*
X162348654Y-123837485D01*
X162461693Y-123269200D01*
X162348654Y-122700915D01*
X162026747Y-122219146D01*
X161697574Y-121999200D01*
X162026747Y-121779254D01*
X162348654Y-121297485D01*
X162461693Y-120729200D01*
X162348654Y-120160915D01*
X162026747Y-119679146D01*
X161697574Y-119459200D01*
X162026747Y-119239254D01*
X162348654Y-118757485D01*
X162461693Y-118189200D01*
X162348654Y-117620915D01*
X162026747Y-117139146D01*
X161697574Y-116919200D01*
X162026747Y-116699254D01*
X162348654Y-116217485D01*
X162461693Y-115649200D01*
X162348654Y-115080915D01*
X162026747Y-114599146D01*
X161985148Y-114571350D01*
X162032917Y-114562362D01*
X162249041Y-114423290D01*
X162394031Y-114211090D01*
X162445040Y-113959200D01*
X162445040Y-112259200D01*
X162400762Y-112023883D01*
X162261690Y-111807759D01*
X162049490Y-111662769D01*
X161797600Y-111611760D01*
X160097600Y-111611760D01*
X159862283Y-111656038D01*
X159660000Y-111786204D01*
X159660000Y-111110000D01*
X170240000Y-111110000D01*
X170240000Y-111792939D01*
G36*
X170240000Y-130158302D02*
X170026747Y-129839146D01*
X169697574Y-129619200D01*
X170026747Y-129399254D01*
X170240000Y-129080098D01*
X170240000Y-130158302D01*
X170240000Y-130158302D01*
G37*
X170240000Y-130158302D02*
X170026747Y-129839146D01*
X169697574Y-129619200D01*
X170026747Y-129399254D01*
X170240000Y-129080098D01*
X170240000Y-130158302D01*
G36*
X159868453Y-129399254D02*
X160197626Y-129619200D01*
X159868453Y-129839146D01*
X159660000Y-130151119D01*
X159660000Y-129087281D01*
X159868453Y-129399254D01*
X159868453Y-129399254D01*
G37*
X159868453Y-129399254D02*
X160197626Y-129619200D01*
X159868453Y-129839146D01*
X159660000Y-130151119D01*
X159660000Y-129087281D01*
X159868453Y-129399254D01*
G36*
X167868453Y-129399254D02*
X168197626Y-129619200D01*
X167868453Y-129839146D01*
X167674646Y-130129200D01*
X166502705Y-130129200D01*
X166411690Y-129987759D01*
X166199490Y-129842769D01*
X165947600Y-129791760D01*
X165761464Y-129791760D01*
X165761649Y-129579391D01*
X165706798Y-129446640D01*
X165947600Y-129446640D01*
X166182917Y-129402362D01*
X166399041Y-129263290D01*
X166504326Y-129109200D01*
X167674646Y-129109200D01*
X167868453Y-129399254D01*
X167868453Y-129399254D01*
G37*
X167868453Y-129399254D02*
X168197626Y-129619200D01*
X167868453Y-129839146D01*
X167674646Y-130129200D01*
X166502705Y-130129200D01*
X166411690Y-129987759D01*
X166199490Y-129842769D01*
X165947600Y-129791760D01*
X165761464Y-129791760D01*
X165761649Y-129579391D01*
X165706798Y-129446640D01*
X165947600Y-129446640D01*
X166182917Y-129402362D01*
X166399041Y-129263290D01*
X166504326Y-129109200D01*
X167674646Y-129109200D01*
X167868453Y-129399254D01*
G36*
X170240000Y-127618302D02*
X170026747Y-127299146D01*
X169697574Y-127079200D01*
X170026747Y-126859254D01*
X170240000Y-126540098D01*
X170240000Y-127618302D01*
X170240000Y-127618302D01*
G37*
X170240000Y-127618302D02*
X170026747Y-127299146D01*
X169697574Y-127079200D01*
X170026747Y-126859254D01*
X170240000Y-126540098D01*
X170240000Y-127618302D01*
G36*
X159868453Y-126859254D02*
X160197626Y-127079200D01*
X159868453Y-127299146D01*
X159660000Y-127611119D01*
X159660000Y-126547281D01*
X159868453Y-126859254D01*
X159868453Y-126859254D01*
G37*
X159868453Y-126859254D02*
X160197626Y-127079200D01*
X159868453Y-127299146D01*
X159660000Y-127611119D01*
X159660000Y-126547281D01*
X159868453Y-126859254D01*
G36*
X167868453Y-126859254D02*
X168197626Y-127079200D01*
X167868453Y-127299146D01*
X167674646Y-127589200D01*
X166502705Y-127589200D01*
X166411690Y-127447759D01*
X166199490Y-127302769D01*
X165947600Y-127251760D01*
X165761499Y-127251760D01*
X165761649Y-127079389D01*
X165690271Y-126906640D01*
X165947600Y-126906640D01*
X166182917Y-126862362D01*
X166399041Y-126723290D01*
X166504326Y-126569200D01*
X167674646Y-126569200D01*
X167868453Y-126859254D01*
X167868453Y-126859254D01*
G37*
X167868453Y-126859254D02*
X168197626Y-127079200D01*
X167868453Y-127299146D01*
X167674646Y-127589200D01*
X166502705Y-127589200D01*
X166411690Y-127447759D01*
X166199490Y-127302769D01*
X165947600Y-127251760D01*
X165761499Y-127251760D01*
X165761649Y-127079389D01*
X165690271Y-126906640D01*
X165947600Y-126906640D01*
X166182917Y-126862362D01*
X166399041Y-126723290D01*
X166504326Y-126569200D01*
X167674646Y-126569200D01*
X167868453Y-126859254D01*
G36*
X170240000Y-125078302D02*
X170026747Y-124759146D01*
X169697574Y-124539200D01*
X170026747Y-124319254D01*
X170240000Y-124000098D01*
X170240000Y-125078302D01*
X170240000Y-125078302D01*
G37*
X170240000Y-125078302D02*
X170026747Y-124759146D01*
X169697574Y-124539200D01*
X170026747Y-124319254D01*
X170240000Y-124000098D01*
X170240000Y-125078302D01*
G36*
X159868453Y-124319254D02*
X160197626Y-124539200D01*
X159868453Y-124759146D01*
X159660000Y-125071119D01*
X159660000Y-124007281D01*
X159868453Y-124319254D01*
X159868453Y-124319254D01*
G37*
X159868453Y-124319254D02*
X160197626Y-124539200D01*
X159868453Y-124759146D01*
X159660000Y-125071119D01*
X159660000Y-124007281D01*
X159868453Y-124319254D01*
G36*
X167868453Y-124319254D02*
X168197626Y-124539200D01*
X167868453Y-124759146D01*
X167674646Y-125049200D01*
X166502705Y-125049200D01*
X166411690Y-124907759D01*
X166199490Y-124762769D01*
X165947600Y-124711760D01*
X165811538Y-124711760D01*
X165811653Y-124579389D01*
X165723747Y-124366640D01*
X165947600Y-124366640D01*
X166182917Y-124322362D01*
X166399041Y-124183290D01*
X166504326Y-124029200D01*
X167674646Y-124029200D01*
X167868453Y-124319254D01*
X167868453Y-124319254D01*
G37*
X167868453Y-124319254D02*
X168197626Y-124539200D01*
X167868453Y-124759146D01*
X167674646Y-125049200D01*
X166502705Y-125049200D01*
X166411690Y-124907759D01*
X166199490Y-124762769D01*
X165947600Y-124711760D01*
X165811538Y-124711760D01*
X165811653Y-124579389D01*
X165723747Y-124366640D01*
X165947600Y-124366640D01*
X166182917Y-124322362D01*
X166399041Y-124183290D01*
X166504326Y-124029200D01*
X167674646Y-124029200D01*
X167868453Y-124319254D01*
G36*
X170240000Y-122538302D02*
X170026747Y-122219146D01*
X169697574Y-121999200D01*
X170026747Y-121779254D01*
X170240000Y-121460098D01*
X170240000Y-122538302D01*
X170240000Y-122538302D01*
G37*
X170240000Y-122538302D02*
X170026747Y-122219146D01*
X169697574Y-121999200D01*
X170026747Y-121779254D01*
X170240000Y-121460098D01*
X170240000Y-122538302D01*
G36*
X159868453Y-121779254D02*
X160197626Y-121999200D01*
X159868453Y-122219146D01*
X159660000Y-122531119D01*
X159660000Y-121467281D01*
X159868453Y-121779254D01*
X159868453Y-121779254D01*
G37*
X159868453Y-121779254D02*
X160197626Y-121999200D01*
X159868453Y-122219146D01*
X159660000Y-122531119D01*
X159660000Y-121467281D01*
X159868453Y-121779254D01*
G36*
X167868453Y-121779254D02*
X168197626Y-121999200D01*
X167868453Y-122219146D01*
X167674646Y-122509200D01*
X166502705Y-122509200D01*
X166411690Y-122367759D01*
X166199490Y-122222769D01*
X165947600Y-122171760D01*
X165761481Y-122171760D01*
X165761649Y-121979395D01*
X165698532Y-121826640D01*
X165947600Y-121826640D01*
X166182917Y-121782362D01*
X166399041Y-121643290D01*
X166504326Y-121489200D01*
X167674646Y-121489200D01*
X167868453Y-121779254D01*
X167868453Y-121779254D01*
G37*
X167868453Y-121779254D02*
X168197626Y-121999200D01*
X167868453Y-122219146D01*
X167674646Y-122509200D01*
X166502705Y-122509200D01*
X166411690Y-122367759D01*
X166199490Y-122222769D01*
X165947600Y-122171760D01*
X165761481Y-122171760D01*
X165761649Y-121979395D01*
X165698532Y-121826640D01*
X165947600Y-121826640D01*
X166182917Y-121782362D01*
X166399041Y-121643290D01*
X166504326Y-121489200D01*
X167674646Y-121489200D01*
X167868453Y-121779254D01*
G36*
X170240000Y-119998302D02*
X170026747Y-119679146D01*
X169697574Y-119459200D01*
X170026747Y-119239254D01*
X170240000Y-118920098D01*
X170240000Y-119998302D01*
X170240000Y-119998302D01*
G37*
X170240000Y-119998302D02*
X170026747Y-119679146D01*
X169697574Y-119459200D01*
X170026747Y-119239254D01*
X170240000Y-118920098D01*
X170240000Y-119998302D01*
G36*
X159868453Y-119239254D02*
X160197626Y-119459200D01*
X159868453Y-119679146D01*
X159660000Y-119991119D01*
X159660000Y-118927281D01*
X159868453Y-119239254D01*
X159868453Y-119239254D01*
G37*
X159868453Y-119239254D02*
X160197626Y-119459200D01*
X159868453Y-119679146D01*
X159660000Y-119991119D01*
X159660000Y-118927281D01*
X159868453Y-119239254D01*
G36*
X167868453Y-119239254D02*
X168197626Y-119459200D01*
X167868453Y-119679146D01*
X167674646Y-119969200D01*
X166502705Y-119969200D01*
X166411690Y-119827759D01*
X166199490Y-119682769D01*
X165947600Y-119631760D01*
X165761472Y-119631760D01*
X165761649Y-119429391D01*
X165702666Y-119286640D01*
X165947600Y-119286640D01*
X166182917Y-119242362D01*
X166399041Y-119103290D01*
X166504326Y-118949200D01*
X167674646Y-118949200D01*
X167868453Y-119239254D01*
X167868453Y-119239254D01*
G37*
X167868453Y-119239254D02*
X168197626Y-119459200D01*
X167868453Y-119679146D01*
X167674646Y-119969200D01*
X166502705Y-119969200D01*
X166411690Y-119827759D01*
X166199490Y-119682769D01*
X165947600Y-119631760D01*
X165761472Y-119631760D01*
X165761649Y-119429391D01*
X165702666Y-119286640D01*
X165947600Y-119286640D01*
X166182917Y-119242362D01*
X166399041Y-119103290D01*
X166504326Y-118949200D01*
X167674646Y-118949200D01*
X167868453Y-119239254D01*
G36*
X170240000Y-117458302D02*
X170026747Y-117139146D01*
X169697574Y-116919200D01*
X170026747Y-116699254D01*
X170240000Y-116380098D01*
X170240000Y-117458302D01*
X170240000Y-117458302D01*
G37*
X170240000Y-117458302D02*
X170026747Y-117139146D01*
X169697574Y-116919200D01*
X170026747Y-116699254D01*
X170240000Y-116380098D01*
X170240000Y-117458302D01*
G36*
X159868453Y-116699254D02*
X160197626Y-116919200D01*
X159868453Y-117139146D01*
X159660000Y-117451119D01*
X159660000Y-116387281D01*
X159868453Y-116699254D01*
X159868453Y-116699254D01*
G37*
X159868453Y-116699254D02*
X160197626Y-116919200D01*
X159868453Y-117139146D01*
X159660000Y-117451119D01*
X159660000Y-116387281D01*
X159868453Y-116699254D01*
G36*
X167868453Y-116699254D02*
X168197626Y-116919200D01*
X167868453Y-117139146D01*
X167674646Y-117429200D01*
X166502705Y-117429200D01*
X166411690Y-117287759D01*
X166199490Y-117142769D01*
X165947600Y-117091760D01*
X165761464Y-117091760D01*
X165761649Y-116879389D01*
X165706798Y-116746640D01*
X165947600Y-116746640D01*
X166182917Y-116702362D01*
X166399041Y-116563290D01*
X166504326Y-116409200D01*
X167674646Y-116409200D01*
X167868453Y-116699254D01*
X167868453Y-116699254D01*
G37*
X167868453Y-116699254D02*
X168197626Y-116919200D01*
X167868453Y-117139146D01*
X167674646Y-117429200D01*
X166502705Y-117429200D01*
X166411690Y-117287759D01*
X166199490Y-117142769D01*
X165947600Y-117091760D01*
X165761464Y-117091760D01*
X165761649Y-116879389D01*
X165706798Y-116746640D01*
X165947600Y-116746640D01*
X166182917Y-116702362D01*
X166399041Y-116563290D01*
X166504326Y-116409200D01*
X167674646Y-116409200D01*
X167868453Y-116699254D01*
G36*
X170240000Y-114918302D02*
X170026747Y-114599146D01*
X169985148Y-114571350D01*
X170032917Y-114562362D01*
X170240000Y-114429108D01*
X170240000Y-114918302D01*
X170240000Y-114918302D01*
G37*
X170240000Y-114918302D02*
X170026747Y-114599146D01*
X169985148Y-114571350D01*
X170032917Y-114562362D01*
X170240000Y-114429108D01*
X170240000Y-114918302D01*
G36*
X159845710Y-114555631D02*
X159913141Y-114569286D01*
X159868453Y-114599146D01*
X159660000Y-114911119D01*
X159660000Y-114428741D01*
X159845710Y-114555631D01*
X159845710Y-114555631D01*
G37*
X159845710Y-114555631D02*
X159913141Y-114569286D01*
X159868453Y-114599146D01*
X159660000Y-114911119D01*
X159660000Y-114428741D01*
X159845710Y-114555631D01*
G36*
X167450160Y-113959200D02*
X167494438Y-114194517D01*
X167633510Y-114410641D01*
X167845710Y-114555631D01*
X167913141Y-114569286D01*
X167868453Y-114599146D01*
X167674646Y-114889200D01*
X166502705Y-114889200D01*
X166411690Y-114747759D01*
X166199490Y-114602769D01*
X165947600Y-114551760D01*
X165711455Y-114551760D01*
X165711649Y-114329389D01*
X165660930Y-114206640D01*
X165947600Y-114206640D01*
X166182917Y-114162362D01*
X166399041Y-114023290D01*
X166504326Y-113869200D01*
X167450160Y-113869200D01*
X167450160Y-113959200D01*
X167450160Y-113959200D01*
G37*
X167450160Y-113959200D02*
X167494438Y-114194517D01*
X167633510Y-114410641D01*
X167845710Y-114555631D01*
X167913141Y-114569286D01*
X167868453Y-114599146D01*
X167674646Y-114889200D01*
X166502705Y-114889200D01*
X166411690Y-114747759D01*
X166199490Y-114602769D01*
X165947600Y-114551760D01*
X165711455Y-114551760D01*
X165711649Y-114329389D01*
X165660930Y-114206640D01*
X165947600Y-114206640D01*
X166182917Y-114162362D01*
X166399041Y-114023290D01*
X166504326Y-113869200D01*
X167450160Y-113869200D01*
X167450160Y-113959200D01*
M02*
