G04 #@! TF.FileFunction,Legend,Top*
%FSLAX46Y46*%
G04 Gerber Fmt 4.6, Leading zero omitted, Abs format (unit mm)*
G04 Created by KiCad (PCBNEW 4.0.7) date 11/15/17 16:50:02*
%MOMM*%
%LPD*%
G01*
G04 APERTURE LIST*
%ADD10C,0.100000*%
%ADD11C,0.200000*%
%ADD12C,0.120000*%
%ADD13C,0.150000*%
G04 APERTURE END LIST*
D10*
D11*
X166900000Y-111500000D02*
X165900000Y-111500000D01*
X166400000Y-112000000D02*
X166400000Y-111000000D01*
D12*
X167617600Y-132219200D02*
X170277600Y-132219200D01*
X167617600Y-114379200D02*
X167617600Y-132219200D01*
X170277600Y-114379200D02*
X170277600Y-132219200D01*
X167617600Y-114379200D02*
X170277600Y-114379200D01*
X167617600Y-113109200D02*
X167617600Y-111779200D01*
X167617600Y-111779200D02*
X168947600Y-111779200D01*
X159617600Y-132219200D02*
X162277600Y-132219200D01*
X159617600Y-114379200D02*
X159617600Y-132219200D01*
X162277600Y-114379200D02*
X162277600Y-132219200D01*
X159617600Y-114379200D02*
X162277600Y-114379200D01*
X159617600Y-113109200D02*
X159617600Y-111779200D01*
X159617600Y-111779200D02*
X160947600Y-111779200D01*
D13*
X165147600Y-130889200D02*
X164547600Y-130889200D01*
X165147600Y-130439200D02*
X165147600Y-131239200D01*
D12*
X163147600Y-130189200D02*
X163147600Y-131589200D01*
X163147600Y-131589200D02*
X165947600Y-131589200D01*
X163147600Y-130189200D02*
X165947600Y-130189200D01*
D13*
X165147600Y-128349200D02*
X164547600Y-128349200D01*
X165147600Y-127899200D02*
X165147600Y-128699200D01*
D12*
X163147600Y-127649200D02*
X163147600Y-129049200D01*
X163147600Y-129049200D02*
X165947600Y-129049200D01*
X163147600Y-127649200D02*
X165947600Y-127649200D01*
D13*
X165147600Y-125809200D02*
X164547600Y-125809200D01*
X165147600Y-125359200D02*
X165147600Y-126159200D01*
D12*
X163147600Y-125109200D02*
X163147600Y-126509200D01*
X163147600Y-126509200D02*
X165947600Y-126509200D01*
X163147600Y-125109200D02*
X165947600Y-125109200D01*
D13*
X165147600Y-123269200D02*
X164547600Y-123269200D01*
X165147600Y-122819200D02*
X165147600Y-123619200D01*
D12*
X163147600Y-122569200D02*
X163147600Y-123969200D01*
X163147600Y-123969200D02*
X165947600Y-123969200D01*
X163147600Y-122569200D02*
X165947600Y-122569200D01*
D13*
X165147600Y-120729200D02*
X164547600Y-120729200D01*
X165147600Y-120279200D02*
X165147600Y-121079200D01*
D12*
X163147600Y-120029200D02*
X163147600Y-121429200D01*
X163147600Y-121429200D02*
X165947600Y-121429200D01*
X163147600Y-120029200D02*
X165947600Y-120029200D01*
D13*
X165147600Y-118189200D02*
X164547600Y-118189200D01*
X165147600Y-117739200D02*
X165147600Y-118539200D01*
D12*
X163147600Y-117489200D02*
X163147600Y-118889200D01*
X163147600Y-118889200D02*
X165947600Y-118889200D01*
X163147600Y-117489200D02*
X165947600Y-117489200D01*
D13*
X165147600Y-115649200D02*
X164547600Y-115649200D01*
X165147600Y-115199200D02*
X165147600Y-115999200D01*
D12*
X163147600Y-114949200D02*
X163147600Y-116349200D01*
X163147600Y-116349200D02*
X165947600Y-116349200D01*
X163147600Y-114949200D02*
X165947600Y-114949200D01*
D13*
X165147600Y-113109200D02*
X164547600Y-113109200D01*
X165147600Y-112659200D02*
X165147600Y-113459200D01*
D12*
X163147600Y-112409200D02*
X163147600Y-113809200D01*
X163147600Y-113809200D02*
X165947600Y-113809200D01*
X163147600Y-112409200D02*
X165947600Y-112409200D01*
D10*
M02*
