M48
;DRILL file {KiCad 4.0.7} date 11/15/17 16:49:38
;FORMAT={-:-/ absolute / metric / decimal}
FMAT,2
METRIC,TZ
T1C0.300
T2C1.000
%
G90
G05
M71
T1
X164.85Y-114.5
X164.9Y-112.
X164.9Y-117.05
X164.9Y-119.6
X164.9Y-122.15
X164.9Y-127.25
X164.9Y-129.75
X164.95Y-124.75
T2
X160.948Y-113.109
X160.948Y-115.649
X160.948Y-118.189
X160.948Y-120.729
X160.948Y-123.269
X160.948Y-125.809
X160.948Y-128.349
X160.948Y-130.889
X168.948Y-113.109
X168.948Y-115.649
X168.948Y-118.189
X168.948Y-120.729
X168.948Y-123.269
X168.948Y-125.809
X168.948Y-128.349
X168.948Y-130.889
T0
M30
