G04 #@! TF.FileFunction,Other,ECO1*
%FSLAX46Y46*%
G04 Gerber Fmt 4.6, Leading zero omitted, Abs format (unit mm)*
G04 Created by KiCad (PCBNEW 4.0.7) date 11/15/17 16:50:02*
%MOMM*%
%LPD*%
G01*
G04 APERTURE LIST*
%ADD10C,0.100000*%
%ADD11C,0.300000*%
G04 APERTURE END LIST*
D10*
D11*
X174378571Y-115785715D02*
X174450000Y-115857144D01*
X174521429Y-116000001D01*
X174521429Y-116357144D01*
X174450000Y-116500001D01*
X174378571Y-116571430D01*
X174235714Y-116642858D01*
X174092857Y-116642858D01*
X173878571Y-116571430D01*
X173021429Y-115714287D01*
X173021429Y-116642858D01*
X174521429Y-117142858D02*
X174521429Y-118071429D01*
X173950000Y-117571429D01*
X173950000Y-117785715D01*
X173878571Y-117928572D01*
X173807143Y-118000001D01*
X173664286Y-118071429D01*
X173307143Y-118071429D01*
X173164286Y-118000001D01*
X173092857Y-117928572D01*
X173021429Y-117785715D01*
X173021429Y-117357143D01*
X173092857Y-117214286D01*
X173164286Y-117142858D01*
X173164286Y-118714286D02*
X173092857Y-118785714D01*
X173021429Y-118714286D01*
X173092857Y-118642857D01*
X173164286Y-118714286D01*
X173021429Y-118714286D01*
X174378571Y-119357143D02*
X174450000Y-119428572D01*
X174521429Y-119571429D01*
X174521429Y-119928572D01*
X174450000Y-120071429D01*
X174378571Y-120142858D01*
X174235714Y-120214286D01*
X174092857Y-120214286D01*
X173878571Y-120142858D01*
X173021429Y-119285715D01*
X173021429Y-120214286D01*
X174521429Y-121142857D02*
X174521429Y-121285714D01*
X174450000Y-121428571D01*
X174378571Y-121500000D01*
X174235714Y-121571429D01*
X173950000Y-121642857D01*
X173592857Y-121642857D01*
X173307143Y-121571429D01*
X173164286Y-121500000D01*
X173092857Y-121428571D01*
X173021429Y-121285714D01*
X173021429Y-121142857D01*
X173092857Y-121000000D01*
X173164286Y-120928571D01*
X173307143Y-120857143D01*
X173592857Y-120785714D01*
X173950000Y-120785714D01*
X174235714Y-120857143D01*
X174378571Y-120928571D01*
X174450000Y-121000000D01*
X174521429Y-121142857D01*
X174521429Y-122571428D02*
X174521429Y-122714285D01*
X174450000Y-122857142D01*
X174378571Y-122928571D01*
X174235714Y-123000000D01*
X173950000Y-123071428D01*
X173592857Y-123071428D01*
X173307143Y-123000000D01*
X173164286Y-122928571D01*
X173092857Y-122857142D01*
X173021429Y-122714285D01*
X173021429Y-122571428D01*
X173092857Y-122428571D01*
X173164286Y-122357142D01*
X173307143Y-122285714D01*
X173592857Y-122214285D01*
X173950000Y-122214285D01*
X174235714Y-122285714D01*
X174378571Y-122357142D01*
X174450000Y-122428571D01*
X174521429Y-122571428D01*
X173021429Y-124857142D02*
X174021429Y-124857142D01*
X173878571Y-124857142D02*
X173950000Y-124928570D01*
X174021429Y-125071428D01*
X174021429Y-125285713D01*
X173950000Y-125428570D01*
X173807143Y-125499999D01*
X173021429Y-125499999D01*
X173807143Y-125499999D02*
X173950000Y-125571428D01*
X174021429Y-125714285D01*
X174021429Y-125928570D01*
X173950000Y-126071428D01*
X173807143Y-126142856D01*
X173021429Y-126142856D01*
X173021429Y-126857142D02*
X174021429Y-126857142D01*
X173878571Y-126857142D02*
X173950000Y-126928570D01*
X174021429Y-127071428D01*
X174021429Y-127285713D01*
X173950000Y-127428570D01*
X173807143Y-127499999D01*
X173021429Y-127499999D01*
X173807143Y-127499999D02*
X173950000Y-127571428D01*
X174021429Y-127714285D01*
X174021429Y-127928570D01*
X173950000Y-128071428D01*
X173807143Y-128142856D01*
X173021429Y-128142856D01*
X172350000Y-110400000D02*
X172350000Y-133600000D01*
X170950000Y-110400000D02*
X175050000Y-110400000D01*
X170950000Y-133600000D02*
X175050000Y-133600000D01*
X172350000Y-133600000D02*
X171763579Y-132473496D01*
X172350000Y-133600000D02*
X172936421Y-132473496D01*
X172350000Y-110400000D02*
X171763579Y-111526504D01*
X172350000Y-110400000D02*
X172936421Y-111526504D01*
X159592858Y-108328571D02*
X158735715Y-108328571D01*
X159164287Y-108328571D02*
X159164287Y-106828571D01*
X159021430Y-107042857D01*
X158878572Y-107185714D01*
X158735715Y-107257143D01*
X160164286Y-106971429D02*
X160235715Y-106900000D01*
X160378572Y-106828571D01*
X160735715Y-106828571D01*
X160878572Y-106900000D01*
X160950001Y-106971429D01*
X161021429Y-107114286D01*
X161021429Y-107257143D01*
X160950001Y-107471429D01*
X160092858Y-108328571D01*
X161021429Y-108328571D01*
X161664286Y-108185714D02*
X161735714Y-108257143D01*
X161664286Y-108328571D01*
X161592857Y-108257143D01*
X161664286Y-108185714D01*
X161664286Y-108328571D01*
X162664286Y-106828571D02*
X162807143Y-106828571D01*
X162950000Y-106900000D01*
X163021429Y-106971429D01*
X163092858Y-107114286D01*
X163164286Y-107400000D01*
X163164286Y-107757143D01*
X163092858Y-108042857D01*
X163021429Y-108185714D01*
X162950000Y-108257143D01*
X162807143Y-108328571D01*
X162664286Y-108328571D01*
X162521429Y-108257143D01*
X162450000Y-108185714D01*
X162378572Y-108042857D01*
X162307143Y-107757143D01*
X162307143Y-107400000D01*
X162378572Y-107114286D01*
X162450000Y-106971429D01*
X162521429Y-106900000D01*
X162664286Y-106828571D01*
X164092857Y-106828571D02*
X164235714Y-106828571D01*
X164378571Y-106900000D01*
X164450000Y-106971429D01*
X164521429Y-107114286D01*
X164592857Y-107400000D01*
X164592857Y-107757143D01*
X164521429Y-108042857D01*
X164450000Y-108185714D01*
X164378571Y-108257143D01*
X164235714Y-108328571D01*
X164092857Y-108328571D01*
X163950000Y-108257143D01*
X163878571Y-108185714D01*
X163807143Y-108042857D01*
X163735714Y-107757143D01*
X163735714Y-107400000D01*
X163807143Y-107114286D01*
X163878571Y-106971429D01*
X163950000Y-106900000D01*
X164092857Y-106828571D01*
X165521428Y-106828571D02*
X165664285Y-106828571D01*
X165807142Y-106900000D01*
X165878571Y-106971429D01*
X165950000Y-107114286D01*
X166021428Y-107400000D01*
X166021428Y-107757143D01*
X165950000Y-108042857D01*
X165878571Y-108185714D01*
X165807142Y-108257143D01*
X165664285Y-108328571D01*
X165521428Y-108328571D01*
X165378571Y-108257143D01*
X165307142Y-108185714D01*
X165235714Y-108042857D01*
X165164285Y-107757143D01*
X165164285Y-107400000D01*
X165235714Y-107114286D01*
X165307142Y-106971429D01*
X165378571Y-106900000D01*
X165521428Y-106828571D01*
X167807142Y-108328571D02*
X167807142Y-107328571D01*
X167807142Y-107471429D02*
X167878570Y-107400000D01*
X168021428Y-107328571D01*
X168235713Y-107328571D01*
X168378570Y-107400000D01*
X168449999Y-107542857D01*
X168449999Y-108328571D01*
X168449999Y-107542857D02*
X168521428Y-107400000D01*
X168664285Y-107328571D01*
X168878570Y-107328571D01*
X169021428Y-107400000D01*
X169092856Y-107542857D01*
X169092856Y-108328571D01*
X169807142Y-108328571D02*
X169807142Y-107328571D01*
X169807142Y-107471429D02*
X169878570Y-107400000D01*
X170021428Y-107328571D01*
X170235713Y-107328571D01*
X170378570Y-107400000D01*
X170449999Y-107542857D01*
X170449999Y-108328571D01*
X170449999Y-107542857D02*
X170521428Y-107400000D01*
X170664285Y-107328571D01*
X170878570Y-107328571D01*
X171021428Y-107400000D01*
X171092856Y-107542857D01*
X171092856Y-108328571D01*
X158950000Y-109000000D02*
X170950000Y-109000000D01*
X158950000Y-110400000D02*
X158950000Y-106300000D01*
X170950000Y-110400000D02*
X170950000Y-106300000D01*
X170950000Y-109000000D02*
X169823496Y-109586421D01*
X170950000Y-109000000D02*
X169823496Y-108413579D01*
X158950000Y-109000000D02*
X160076504Y-109586421D01*
X158950000Y-109000000D02*
X160076504Y-108413579D01*
M02*
