G04 #@! TF.FileFunction,Other,User*
%FSLAX46Y46*%
G04 Gerber Fmt 4.6, Leading zero omitted, Abs format (unit mm)*
G04 Created by KiCad (PCBNEW 4.0.7) date 11/15/17 16:50:02*
%MOMM*%
%LPD*%
G01*
G04 APERTURE LIST*
%ADD10C,0.100000*%
%ADD11C,0.050000*%
G04 APERTURE END LIST*
D10*
D11*
X163697600Y-113809200D02*
X166197600Y-113809200D01*
X163697600Y-113809200D02*
X163697600Y-112409200D01*
X166197600Y-112409200D02*
X166197600Y-113809200D01*
X166197600Y-112409200D02*
X163697600Y-112409200D01*
X163697600Y-116349200D02*
X166197600Y-116349200D01*
X163697600Y-116349200D02*
X163697600Y-114949200D01*
X166197600Y-114949200D02*
X166197600Y-116349200D01*
X166197600Y-114949200D02*
X163697600Y-114949200D01*
X163697600Y-118889200D02*
X166197600Y-118889200D01*
X163697600Y-118889200D02*
X163697600Y-117489200D01*
X166197600Y-117489200D02*
X166197600Y-118889200D01*
X166197600Y-117489200D02*
X163697600Y-117489200D01*
X163697600Y-121429200D02*
X166197600Y-121429200D01*
X163697600Y-121429200D02*
X163697600Y-120029200D01*
X166197600Y-120029200D02*
X166197600Y-121429200D01*
X166197600Y-120029200D02*
X163697600Y-120029200D01*
X163697600Y-123969200D02*
X166197600Y-123969200D01*
X163697600Y-123969200D02*
X163697600Y-122569200D01*
X166197600Y-122569200D02*
X166197600Y-123969200D01*
X166197600Y-122569200D02*
X163697600Y-122569200D01*
X163697600Y-126509200D02*
X166197600Y-126509200D01*
X163697600Y-126509200D02*
X163697600Y-125109200D01*
X166197600Y-125109200D02*
X166197600Y-126509200D01*
X166197600Y-125109200D02*
X163697600Y-125109200D01*
X163697600Y-129049200D02*
X166197600Y-129049200D01*
X163697600Y-129049200D02*
X163697600Y-127649200D01*
X166197600Y-127649200D02*
X166197600Y-129049200D01*
X166197600Y-127649200D02*
X163697600Y-127649200D01*
X163697600Y-131589200D02*
X166197600Y-131589200D01*
X163697600Y-131589200D02*
X163697600Y-130189200D01*
X166197600Y-130189200D02*
X166197600Y-131589200D01*
X166197600Y-130189200D02*
X163697600Y-130189200D01*
M02*
