G04 #@! TF.FileFunction,Other,User*
%FSLAX46Y46*%
G04 Gerber Fmt 4.6, Leading zero omitted, Abs format (unit mm)*
G04 Created by KiCad (PCBNEW 4.0.7) date 11/15/17 16:50:02*
%MOMM*%
%LPD*%
G01*
G04 APERTURE LIST*
%ADD10C,0.100000*%
%ADD11C,0.050000*%
G04 APERTURE END LIST*
D10*
D11*
X167147600Y-111309200D02*
X167147600Y-132659200D01*
X167147600Y-132659200D02*
X170747600Y-132659200D01*
X170747600Y-132659200D02*
X170747600Y-111309200D01*
X170747600Y-111309200D02*
X167147600Y-111309200D01*
X159147600Y-111309200D02*
X159147600Y-132659200D01*
X159147600Y-132659200D02*
X162747600Y-132659200D01*
X162747600Y-132659200D02*
X162747600Y-111309200D01*
X162747600Y-111309200D02*
X159147600Y-111309200D01*
X166897600Y-130039200D02*
X166897600Y-131739200D01*
X166897600Y-131739200D02*
X162997600Y-131739200D01*
X162997600Y-131739200D02*
X162997600Y-130039200D01*
X162997600Y-130039200D02*
X166897600Y-130039200D01*
X166897600Y-127499200D02*
X166897600Y-129199200D01*
X166897600Y-129199200D02*
X162997600Y-129199200D01*
X162997600Y-129199200D02*
X162997600Y-127499200D01*
X162997600Y-127499200D02*
X166897600Y-127499200D01*
X166897600Y-124959200D02*
X166897600Y-126659200D01*
X166897600Y-126659200D02*
X162997600Y-126659200D01*
X162997600Y-126659200D02*
X162997600Y-124959200D01*
X162997600Y-124959200D02*
X166897600Y-124959200D01*
X166897600Y-122419200D02*
X166897600Y-124119200D01*
X166897600Y-124119200D02*
X162997600Y-124119200D01*
X162997600Y-124119200D02*
X162997600Y-122419200D01*
X162997600Y-122419200D02*
X166897600Y-122419200D01*
X166897600Y-119879200D02*
X166897600Y-121579200D01*
X166897600Y-121579200D02*
X162997600Y-121579200D01*
X162997600Y-121579200D02*
X162997600Y-119879200D01*
X162997600Y-119879200D02*
X166897600Y-119879200D01*
X166897600Y-117339200D02*
X166897600Y-119039200D01*
X166897600Y-119039200D02*
X162997600Y-119039200D01*
X162997600Y-119039200D02*
X162997600Y-117339200D01*
X162997600Y-117339200D02*
X166897600Y-117339200D01*
X166897600Y-114799200D02*
X166897600Y-116499200D01*
X166897600Y-116499200D02*
X162997600Y-116499200D01*
X162997600Y-116499200D02*
X162997600Y-114799200D01*
X162997600Y-114799200D02*
X166897600Y-114799200D01*
X166897600Y-112259200D02*
X166897600Y-113959200D01*
X166897600Y-113959200D02*
X162997600Y-113959200D01*
X162997600Y-113959200D02*
X162997600Y-112259200D01*
X162997600Y-112259200D02*
X166897600Y-112259200D01*
M02*
